STARTFONT 2.3
FONT -FontForge-Monoton-Book-R-Normal--16-160-72-72-P-108-ISO10646-1
SIZE 16 72 72  2
FONTBOUNDINGBOX 30 25 -2 -6
COMMENT "Generated by fontforge, http://fontforge.sourceforge.net"
COMMENT "Copyright (c) 2011 by vernon adams. All rights reserved."
STARTPROPERTIES 41
FOUNDRY "FontForge"
FAMILY_NAME "Monoton"
WEIGHT_NAME "Book"
SLANT "R"
SETWIDTH_NAME "Normal"
ADD_STYLE_NAME ""
PIXEL_SIZE 16
POINT_SIZE 160
RESOLUTION_X 72
RESOLUTION_Y 72
SPACING "P"
AVERAGE_WIDTH 108
CHARSET_REGISTRY "ISO10646"
CHARSET_ENCODING "1"
FONTNAME_REGISTRY ""
CHARSET_COLLECTIONS "ISO8859-2 ISO8859-9 ISO8859-4 ISO10646-1"
BITS_PER_PIXEL 2
FONT_NAME "Monoton-Regular"
FACE_NAME "Monoton"
COPYRIGHT "Copyright (c) 2011 by vernon adams. All rights reserved."
FONT_VERSION "1.000"
FONT_ASCENT 13
FONT_DESCENT 3
UNDERLINE_POSITION -1
UNDERLINE_THICKNESS 1
X_HEIGHT 11
CAP_HEIGHT 12
DEFAULT_CHAR 1
RAW_ASCENT 799
RAW_DESCENT 200
NORM_SPACE 2
RELATIVE_WEIGHT 40
RELATIVE_SETWIDTH 50
SUPERSCRIPT_X 0
SUPERSCRIPT_Y 5
SUPERSCRIPT_SIZE 9
SUBSCRIPT_X 0
SUBSCRIPT_Y 1
SUBSCRIPT_SIZE 9
AVG_LOWERCASE_WIDTH 115
AVG_UPPERCASE_WIDTH 126
ENDPROPERTIES
CHARS 372
STARTCHAR glyph1.dup1
ENCODING 0
SWIDTH 108 0
DWIDTH 2 0
BBX 1 1 0 0
BITMAP
00
ENDCHAR
STARTCHAR uni0002
ENCODING 2
SWIDTH 108 0
DWIDTH 2 0
BBX 1 1 0 0
BITMAP
00
ENDCHAR
STARTCHAR uni0009
ENCODING 9
SWIDTH 108 0
DWIDTH 2 0
BBX 1 1 0 0
BITMAP
00
ENDCHAR
STARTCHAR uni000A
ENCODING 10
SWIDTH 108 0
DWIDTH 2 0
BBX 1 1 0 0
BITMAP
00
ENDCHAR
STARTCHAR uni000D
ENCODING 13
SWIDTH 108 0
DWIDTH 2 0
BBX 1 1 0 0
BITMAP
00
ENDCHAR
STARTCHAR space
ENCODING 32
SWIDTH 108 0
DWIDTH 2 0
BBX 1 1 0 0
BITMAP
00
ENDCHAR
STARTCHAR exclam
ENCODING 33
SWIDTH 336 0
DWIDTH 5 0
BBX 5 14 0 -1
BITMAP
5680
5680
5680
5680
5680
5680
5680
5680
5680
1540
1540
1540
1540
2A40
ENDCHAR
STARTCHAR quotedbl
ENCODING 34
SWIDTH 538 0
DWIDTH 9 0
BBX 8 5 0 8
BITMAP
552A
552A
552A
552A
552A
ENDCHAR
STARTCHAR numbersign
ENCODING 35
SWIDTH 1014 0
DWIDTH 16 0
BBX 16 15 0 -1
BITMAP
00154150
002542A0
002A05A0
065A6969
0696AA59
0A969A98
00A81680
00681540
01582940
02542A00
16A55A50
65A69690
696AA590
0950A800
0A416800
ENDCHAR
STARTCHAR dollar
ENCODING 36
SWIDTH 686 0
DWIDTH 11 0
BBX 11 18 0 -3
BITMAP
008800
005500
0955A0
265594
599640
559500
559500
5A5580
265660
095694
016954
015954
065694
595660
295580
016500
008800
004400
ENDCHAR
STARTCHAR percent
ENCODING 37
SWIDTH 1504 0
DWIDTH 24 0
BBX 24 15 0 -1
BITMAP
005400000000
095600A40000
265980680000
599A51580000
55A5A2540000
9596A2A06A90
566961A15A94
29A655629A68
19A989556595
02A90A8A555A
000006895A56
00001585A5A5
000025426598
00002A009560
00005A001A40
ENDCHAR
STARTCHAR ampersand
ENCODING 38
SWIDTH 1029 0
DWIDTH 16 0
BBX 16 13 0 0
BITMAP
02AA8A90
19AA8AA0
29AA8AA0
5A6A8AA0
55800AA0
56AA9AA6
29AA9AA6
5A6A9AA6
55800A90
5A6A9A59
29AA9599
19AA9269
02AA9069
ENDCHAR
STARTCHAR quotesingle
ENCODING 39
SWIDTH 257 0
DWIDTH 4 0
BBX 4 5 0 8
BITMAP
55
55
55
55
55
ENDCHAR
STARTCHAR parenleft
ENCODING 40
SWIDTH 410 0
DWIDTH 7 0
BBX 6 15 0 -1
BITMAP
0060
0650
1650
2990
5690
5580
5580
5580
5580
5580
5580
5A60
25A0
19A0
0290
ENDCHAR
STARTCHAR parenright
ENCODING 41
SWIDTH 408 0
DWIDTH 7 0
BBX 6 15 0 -1
BITMAP
5400
5640
5980
5960
66A0
0AA0
0AA0
0AA0
0AA0
0AA0
0AA0
65A0
6650
6980
5900
ENDCHAR
STARTCHAR asterisk
ENCODING 42
SWIDTH 664 0
DWIDTH 11 0
BBX 10 10 0 1
BITMAP
006800
196980
266990
666660
09B680
666A60
256990
196980
006800
001400
ENDCHAR
STARTCHAR plus
ENCODING 43
SWIDTH 601 0
DWIDTH 10 0
BBX 9 7 0 3
BITMAP
01A800
01A800
69AA80
69AA80
69AA80
01A800
01A800
ENDCHAR
STARTCHAR comma
ENCODING 44
SWIDTH 252 0
DWIDTH 4 0
BBX 4 5 0 -2
BITMAP
55
55
15
65
18
ENDCHAR
STARTCHAR hyphen
ENCODING 45
SWIDTH 473 0
DWIDTH 8 0
BBX 6 3 1 5
BITMAP
AAA0
AAA0
AAA0
ENDCHAR
STARTCHAR period
ENCODING 46
SWIDTH 255 0
DWIDTH 4 0
BBX 4 3 0 0
BITMAP
69
69
69
ENDCHAR
STARTCHAR slash
ENCODING 47
SWIDTH 447 0
DWIDTH 7 0
BBX 7 15 0 -2
BITMAP
0168
0154
0294
02A0
05A0
0550
0A50
0A80
1680
1540
2940
2A00
5A00
5500
5400
ENDCHAR
STARTCHAR zero
ENCODING 48
SWIDTH 843 0
DWIDTH 14 0
BBX 13 15 0 -1
BITMAP
00154000
02956400
09959900
16659A00
296A6540
56805680
55802A80
55402A80
55802A80
56805680
29666540
16959A00
09956500
02556400
00194000
ENDCHAR
STARTCHAR one
ENCODING 49
SWIDTH 426 0
DWIDTH 7 0
BBX 6 13 0 0
BITMAP
6AA0
6AA0
6AA0
0A90
0A90
0A90
0A90
0A90
0A90
0A90
0A90
0A90
0A90
ENDCHAR
STARTCHAR two
ENCODING 50
SWIDTH 583 0
DWIDTH 9 0
BBX 9 14 0 0
BITMAP
155000
555900
556A40
256580
299A80
005680
00A940
025A00
056900
1A9400
256000
6AAA00
6AAA00
6AAA00
ENDCHAR
STARTCHAR three
ENCODING 51
SWIDTH 612 0
DWIDTH 10 0
BBX 10 15 0 -1
BITMAP
155000
555900
555940
256680
196A50
056950
055A80
055980
056680
06AA50
156A50
256680
555940
555900
169000
ENDCHAR
STARTCHAR four
ENCODING 52
SWIDTH 622 0
DWIDTH 10 0
BBX 10 13 0 0
BITMAP
016940
025A00
02A500
096800
0A5400
15A140
296280
555140
6AAA90
6AAA90
6AAA90
000280
000280
ENDCHAR
STARTCHAR five
ENCODING 53
SWIDTH 691 0
DWIDTH 11 0
BBX 11 14 0 -1
BITMAP
2AAA90
2AAA90
2AAA90
1A0000
1A6900
1A5580
1A5560
1A5654
055958
015958
065A94
595660
295680
01A400
ENDCHAR
STARTCHAR six
ENCODING 54
SWIDTH 781 0
DWIDTH 13 0
BBX 12 15 0 -1
BITMAP
005540
065564
1995A4
299590
5A6640
559A40
559564
559565
55959A
5595AA
56556A
299596
1A95A9
065564
005940
ENDCHAR
STARTCHAR seven
ENCODING 55
SWIDTH 631 0
DWIDTH 10 0
BBX 10 13 0 0
BITMAP
6AA560
6AA550
6A6A40
001A80
005580
009540
00A940
006A00
015A00
025500
02A500
01A800
056800
ENDCHAR
STARTCHAR eight
ENCODING 56
SWIDTH 808 0
DWIDTH 13 0
BBX 13 15 0 -1
BITMAP
00594000
0A556800
26556600
19959A00
5695A540
56959540
59956940
26556600
1A559A00
559AA540
5695A540
59556900
26556600
09555800
006A5000
ENDCHAR
STARTCHAR nine
ENCODING 57
SWIDTH 782 0
DWIDTH 13 0
BBX 12 15 0 -1
BITMAP
005500
0A55A0
265598
599665
56965A
9595AA
5A55AA
2655AA
0965AA
01A9AA
00565A
0196A5
165598
095560
006900
ENDCHAR
STARTCHAR colon
ENCODING 58
SWIDTH 262 0
DWIDTH 4 0
BBX 3 8 1 2
BITMAP
A4
54
54
50
00
A4
A4
A4
ENDCHAR
STARTCHAR semicolon
ENCODING 59
SWIDTH 261 0
DWIDTH 4 0
BBX 4 10 0 0
BITMAP
29
15
15
14
00
56
56
16
25
28
ENDCHAR
STARTCHAR less
ENCODING 60
SWIDTH 670 0
DWIDTH 11 0
BBX 10 12 0 0
BITMAP
000190
0029A0
065960
669A50
659640
69A400
595640
669A60
065960
0069A0
000190
000010
ENDCHAR
STARTCHAR equal
ENCODING 61
SWIDTH 473 0
DWIDTH 8 0
BBX 6 8 1 2
BITMAP
AAA0
5550
5550
5550
0000
5550
AAA0
AAA0
ENDCHAR
STARTCHAR greater
ENCODING 62
SWIDTH 670 0
DWIDTH 11 0
BBX 10 11 0 1
BITMAP
290000
659000
669A40
565960
1A6690
00A590
0A6960
565A60
669640
659000
290000
ENDCHAR
STARTCHAR question
ENCODING 63
SWIDTH 693 0
DWIDTH 11 0
BBX 11 14 0 0
BITMAP
015400
295680
595660
065994
015958
000958
159654
159560
15A590
15A900
054000
1A4000
1A4000
1A4000
ENDCHAR
STARTCHAR at
ENCODING 64
SWIDTH 1076 0
DWIDTH 17 0
BBX 17 15 0 -1
BITMAP
001AA90000
019AA99000
0596A59400
1664026500
258A695900
1A26A62540
5659A55580
5556158680
565A568680
5A2656A680
2949595940
1660465600
099AA45400
025AA40000
0069640000
ENDCHAR
STARTCHAR A
ENCODING 65
SWIDTH 936 0
DWIDTH 15 0
BBX 15 13 0 0
BITMAP
0025A000
005A9400
00995800
00A5A800
015A9500
02965A00
05A9A900
09589580
0A955A80
15A56950
296565A0
1A955690
95800958
ENDCHAR
STARTCHAR B
ENCODING 66
SWIDTH 862 0
DWIDTH 14 0
BBX 14 13 0 0
BITMAP
6AAAA400
5AAAA600
56AA9980
56AA9A40
56802950
56AA9A40
56AAB680
56AA9A80
56802950
56AA9A40
56AAA580
56AAA640
56AAA800
ENDCHAR
STARTCHAR C
ENCODING 67
SWIDTH 852 0
DWIDTH 14 0
BBX 13 15 0 -1
BITMAP
00154000
01955900
05A56640
16656640
29999900
5A501400
55800000
95400000
55800000
5A901400
29A9A900
16656640
05A56940
01955900
00165000
ENDCHAR
STARTCHAR D
ENCODING 68
SWIDTH 886 0
DWIDTH 14 0
BBX 14 13 0 0
BITMAP
6AAAA400
5AAA9500
56AA9940
56AA6680
56806950
56802560
56801560
56802560
56802950
56AA5680
56AA9940
5AAA9600
6AAAA400
ENDCHAR
STARTCHAR E
ENCODING 69
SWIDTH 706 0
DWIDTH 11 0
BBX 11 13 0 0
BITMAP
56AAA4
56AAA4
56AAA4
568000
568000
56A900
56A900
56A900
568000
568000
56AAA4
56AAA4
56AAA4
ENDCHAR
STARTCHAR F
ENCODING 70
SWIDTH 683 0
DWIDTH 11 0
BBX 11 13 0 0
BITMAP
56AAA4
56AAA4
56AAA4
568000
568000
569550
569550
569550
56AAA0
568000
568000
568000
568000
ENDCHAR
STARTCHAR G
ENCODING 71
SWIDTH 908 0
DWIDTH 15 0
BBX 14 15 0 -1
BITMAP
00154000
01955900
05A56640
16656640
29999900
5A501400
55800000
95400550
55800AA0
5A800AA0
29696AA0
16656AA0
09A56AA0
01955AA0
00165000
ENDCHAR
STARTCHAR H
ENCODING 72
SWIDTH 901 0
DWIDTH 14 0
BBX 14 13 0 0
BITMAP
568015A0
568015A0
568015A0
568015A0
568015A0
56AAA5A0
56AAA5A0
56AAA5A0
568015A0
568015A0
568015A0
568015A0
568015A0
ENDCHAR
STARTCHAR I
ENCODING 73
SWIDTH 338 0
DWIDTH 5 0
BBX 5 13 0 0
BITMAP
5680
5680
5680
5680
5680
5680
5680
5680
5680
5680
5680
5680
5680
ENDCHAR
STARTCHAR J
ENCODING 74
SWIDTH 434 0
DWIDTH 7 0
BBX 7 14 0 -1
BITMAP
0A54
0A54
0A54
0A54
0A54
0A54
0A54
0A54
0A54
5690
59A0
5690
5640
6400
ENDCHAR
STARTCHAR K
ENCODING 75
SWIDTH 815 0
DWIDTH 13 0
BBX 13 13 0 0
BITMAP
5680A540
56815A00
56829500
56856800
568A5400
5695A000
56A96000
5695A000
568A5400
56856800
56829500
56815A00
5680A540
ENDCHAR
STARTCHAR L
ENCODING 76
SWIDTH 604 0
DWIDTH 10 0
BBX 9 13 0 0
BITMAP
568000
568000
568000
568000
568000
568000
568000
568000
568000
568000
56AA80
56AA80
56AA80
ENDCHAR
STARTCHAR M
ENCODING 77
SWIDTH 920 0
DWIDTH 15 0
BBX 14 13 0 0
BITMAP
69000560
65800A60
5A5015A0
59602960
569496A0
5668A9A0
56A65AA0
565A66A0
56A96AA0
56958AA0
56800AA0
56800AA0
56800AA0
ENDCHAR
STARTCHAR N
ENCODING 78
SWIDTH 877 0
DWIDTH 14 0
BBX 14 13 0 0
BITMAP
69602550
66942950
59682950
5AA52950
565A2950
56A5A950
565A5950
56A5A950
568A5950
5685A950
56829650
56816990
56809690
ENDCHAR
STARTCHAR O
ENCODING 79
SWIDTH 933 0
DWIDTH 15 0
BBX 15 15 0 -1
BITMAP
00154000
01955900
05A56540
16656650
29999960
5A501690
55800954
95400554
55800954
5A901694
29A999A0
16656650
05A56940
01955900
00165000
ENDCHAR
STARTCHAR P
ENCODING 80
SWIDTH 850 0
DWIDTH 14 0
BBX 13 13 0 0
BITMAP
6AAAA400
5AAAA600
56AA9940
56AA9680
56802A40
56956A80
56956680
56955A40
56AA9A00
56AAA400
56800000
56800000
56800000
ENDCHAR
STARTCHAR Q
ENCODING 81
SWIDTH 937 0
DWIDTH 15 0
BBX 15 16 0 -2
BITMAP
00154000
01955900
05A56540
16656650
29999960
5A501690
55800954
95400554
55806954
5A925694
29AA99A0
16656650
05A56940
01955980
00165540
00000500
ENDCHAR
STARTCHAR R
ENCODING 82
SWIDTH 843 0
DWIDTH 14 0
BBX 13 13 0 0
BITMAP
6AAAA400
5AAAA600
56AA9940
56AA9680
56802A80
56AA9A80
56956580
56956A00
56955900
5696A800
56829500
56815A00
5680AA00
ENDCHAR
STARTCHAR S
ENCODING 83
SWIDTH 682 0
DWIDTH 11 0
BBX 11 15 0 -1
BITMAP
005500
095590
265594
5A5640
559500
559500
5A5580
265660
095990
016A54
015A54
065590
595660
295580
01A500
ENDCHAR
STARTCHAR T
ENCODING 84
SWIDTH 591 0
DWIDTH 9 0
BBX 9 13 0 0
BITMAP
6AAA80
6AAA80
6AAA80
056800
056800
056800
056800
056800
056800
056800
056800
056800
056800
ENDCHAR
STARTCHAR U
ENCODING 85
SWIDTH 905 0
DWIDTH 14 0
BBX 14 14 0 -1
BITMAP
558005A0
558006A0
558006A0
558006A0
558006A0
558006A0
558006A0
568016A0
5A802560
29659A50
16656580
09956600
01955800
00164000
ENDCHAR
STARTCHAR V
ENCODING 86
SWIDTH 940 0
DWIDTH 15 0
BBX 15 13 0 0
BITMAP
55800958
1A800A94
295015A0
15A02950
0A945A80
09589580
01A8A940
02965A00
015A9500
00A5A800
00995800
005A9400
0025A000
ENDCHAR
STARTCHAR W
ENCODING 87
SWIDTH 1161 0
DWIDTH 19 0
BBX 18 13 0 0
BITMAP
5542A50A90
5685AA16A0
2A855A1560
295A5D6950
156AA5AA40
1695A69680
0AA56A9580
0A6969A540
056AA5AA00
0596975A00
02954A5500
02A94AA500
016A05A800
ENDCHAR
STARTCHAR X
ENCODING 88
SWIDTH 876 0
DWIDTH 14 0
BBX 14 13 0 0
BITMAP
56505640
2960A580
16965A00
0965A500
029A5800
0165A000
005A6000
00A59400
025A6800
05969600
09696940
16949680
29606950
ENDCHAR
STARTCHAR Y
ENCODING 89
SWIDTH 789 0
DWIDTH 13 0
BBX 12 13 0 0
BITMAP
5540A5
2A815A
255295
06A568
095A54
0196A0
026950
019A80
009540
00A540
00A540
00A540
00A540
ENDCHAR
STARTCHAR Z
ENCODING 90
SWIDTH 854 0
DWIDTH 14 0
BBX 13 13 0 0
BITMAP
6AAAAAC0
6AAAA640
6AAA2640
6AA59980
00099980
00666600
02666400
19998000
59990000
2661AA80
265AAA80
59AAAA80
7AAAAA80
ENDCHAR
STARTCHAR bracketleft
ENCODING 91
SWIDTH 320 0
DWIDTH 5 0
BBX 5 15 0 -1
BITMAP
2A40
5540
5940
5640
5600
5600
5600
5600
5600
5600
5600
5600
5640
5A40
6540
ENDCHAR
STARTCHAR backslash
ENCODING 92
SWIDTH 448 0
DWIDTH 7 0
BBX 7 15 0 -2
BITMAP
5500
5600
2A00
2900
2540
1580
0A80
0A40
0950
0560
02A0
0290
0254
0158
0054
ENDCHAR
STARTCHAR bracketright
ENCODING 93
SWIDTH 319 0
DWIDTH 5 0
BBX 5 15 0 -1
BITMAP
6A40
5540
5540
2540
1540
1540
1540
1540
1540
1540
1540
1540
6540
6940
5640
ENDCHAR
STARTCHAR asciicircum
ENCODING 94
SWIDTH 475 0
DWIDTH 8 0
BBX 7 6 0 5
BITMAP
0680
0950
15A0
2594
2858
5428
ENDCHAR
STARTCHAR underscore
ENCODING 95
SWIDTH 511 0
DWIDTH 8 0
BBX 7 3 1 -3
BITMAP
AAA4
AAA4
AAA4
ENDCHAR
STARTCHAR grave
ENCODING 96
SWIDTH 472 0
DWIDTH 8 0
BBX 6 4 1 11
BITMAP
6400
A640
0A50
0040
ENDCHAR
STARTCHAR a
ENCODING 97
SWIDTH 832 0
DWIDTH 13 0
BBX 13 13 0 -1
BITMAP
00594000
06556400
1995A900
25959A00
5A666540
55809580
95405680
55805680
1A665680
26A65680
09955680
01955680
00150000
ENDCHAR
STARTCHAR b
ENCODING 98
SWIDTH 720 0
DWIDTH 12 0
BBX 11 12 0 0
BITMAP
155500
5555A0
495584
46AA68
4601A8
465558
46AA94
46AA68
4600A8
46AA58
46AA54
46AA90
ENDCHAR
STARTCHAR c
ENCODING 99
SWIDTH 736 0
DWIDTH 12 0
BBX 12 13 0 -1
BITMAP
006A40
066A64
1A5965
299594
5A5540
558000
954000
558000
1A6650
269594
099599
025564
001940
ENDCHAR
STARTCHAR d
ENCODING 100
SWIDTH 833 0
DWIDTH 13 0
BBX 13 12 0 0
BITMAP
15550000
6555A000
59559900
56AA9A00
56AA6540
56809680
56805680
56809580
56AA6940
56AA5600
5AAA9800
6AAA9000
ENDCHAR
STARTCHAR e
ENCODING 101
SWIDTH 666 0
DWIDTH 11 0
BBX 10 12 0 0
BITMAP
005550
569550
569550
56AAA0
568000
56AA90
56AA90
56AA90
568000
56AAA0
56AAA0
56AAA0
ENDCHAR
STARTCHAR f
ENCODING 102
SWIDTH 625 0
DWIDTH 10 0
BBX 10 12 0 0
BITMAP
005540
569550
569550
56AA90
568000
56AA80
56AA80
569540
568000
568000
568000
568000
ENDCHAR
STARTCHAR g
ENCODING 103
SWIDTH 827 0
DWIDTH 13 0
BBX 13 13 0 -1
BITMAP
006A4000
066A6400
1A596500
29959400
5A554000
55800000
95405540
55805580
1A669580
26959580
09959580
02559580
00194000
ENDCHAR
STARTCHAR h
ENCODING 104
SWIDTH 830 0
DWIDTH 13 0
BBX 13 11 0 0
BITMAP
56805580
56805580
56805580
56959580
56959580
56959580
56AA9580
56805580
56805580
56805580
56805580
ENDCHAR
STARTCHAR i
ENCODING 105
SWIDTH 337 0
DWIDTH 5 0
BBX 5 11 0 0
BITMAP
5680
5680
5680
5680
5680
5680
5680
5680
5680
5680
5680
ENDCHAR
STARTCHAR j
ENCODING 106
SWIDTH 393 0
DWIDTH 6 0
BBX 6 13 0 -2
BITMAP
1560
1560
1560
1560
1560
1560
1560
1560
6950
5650
5980
5600
6400
ENDCHAR
STARTCHAR k
ENCODING 107
SWIDTH 801 0
DWIDTH 13 0
BBX 13 11 0 0
BITMAP
56816900
56829600
5685A800
568A5400
5695A000
56A96000
5695A000
568A5800
5685A800
56825600
56816940
ENDCHAR
STARTCHAR l
ENCODING 108
SWIDTH 583 0
DWIDTH 9 0
BBX 9 11 0 0
BITMAP
568000
568000
568000
568000
568000
568000
568000
568000
56AA40
56AA40
56AA40
ENDCHAR
STARTCHAR m
ENCODING 109
SWIDTH 1167 0
DWIDTH 19 0
BBX 18 12 0 0
BITMAP
01AA46A800
0969B6A640
2669999650
2A55A959A0
56869616A0
5582950AA0
5582950AA0
5582950AA0
5582950AA0
5582950AA0
5582950AA0
5582950AA0
ENDCHAR
STARTCHAR n
ENCODING 110
SWIDTH 787 0
DWIDTH 13 0
BBX 12 11 0 0
BITMAP
69602A
66942A
59682A
5A962A
565A2A
56A59A
565A5A
5625A6
561696
56096A
560296
ENDCHAR
STARTCHAR o
ENCODING 111
SWIDTH 833 0
DWIDTH 13 0
BBX 13 13 0 -1
BITMAP
006A4000
066A6400
1A596500
29959A00
5A55A540
55805680
95405A80
55805680
1A666940
26959A00
0995A900
02556400
00194000
ENDCHAR
STARTCHAR p
ENCODING 112
SWIDTH 781 0
DWIDTH 13 0
BBX 12 12 0 0
BITMAP
155500
655560
595598
56AA96
56AA6A
56956A
569596
569565
569564
569A40
568000
568000
ENDCHAR
STARTCHAR q
ENCODING 113
SWIDTH 788 0
DWIDTH 13 0
BBX 12 14 0 -2
BITMAP
001555
065556
19955A
29AAAA
566A6A
9540AA
9580AA
5A69AA
25A9AA
19A9AA
02A9AA
0000AA
0000AA
000055
ENDCHAR
STARTCHAR r
ENCODING 114
SWIDTH 831 0
DWIDTH 13 0
BBX 13 12 0 0
BITMAP
15554000
65556800
59556600
56AAA940
56AA9680
56AA9680
56956580
56956600
56955900
569AA800
5682A800
56825500
ENDCHAR
STARTCHAR s
ENCODING 115
SWIDTH 683 0
DWIDTH 11 0
BBX 11 13 0 -1
BITMAP
016500
1955A0
2A5594
565640
560000
596A40
25AA60
06A994
000154
16A994
5A5A60
1A5680
005400
ENDCHAR
STARTCHAR t
ENCODING 116
SWIDTH 588 0
DWIDTH 9 0
BBX 9 12 0 0
BITMAP
155540
555540
555540
6AAA80
056800
056800
056800
056800
056800
056800
056800
056800
ENDCHAR
STARTCHAR u
ENCODING 117
SWIDTH 795 0
DWIDTH 13 0
BBX 12 12 0 -1
BITMAP
5580AA
5580AA
5580AA
5580AA
5580AA
5580AA
5680AA
1A665A
259665
099598
025560
005900
ENDCHAR
STARTCHAR v
ENCODING 118
SWIDTH 855 0
DWIDTH 14 0
BBX 13 11 0 0
BITMAP
56802A40
2A505680
2560A540
16A16A00
0A565600
0566A400
02A56800
025A5400
0166A000
00A56000
006A4000
ENDCHAR
STARTCHAR w
ENCODING 119
SWIDTH 1129 0
DWIDTH 18 0
BBX 18 12 0 -1
BITMAP
5582A82550
5582A82550
5582A82550
5582A82550
5582A82550
5582A82550
5582A82550
56696A9950
29AA9AA680
1A96696940
0656A95900
0054015000
ENDCHAR
STARTCHAR x
ENCODING 120
SWIDTH 790 0
DWIDTH 13 0
BBX 12 12 0 0
BITMAP
010004
596296
259965
0A6658
0569A0
029A50
01A580
025A50
05A5A0
0A5A58
25A5A5
5A525A
ENDCHAR
STARTCHAR y
ENCODING 121
SWIDTH 733 0
DWIDTH 12 0
BBX 11 11 0 0
BITMAP
5582A4
2A5568
15AA54
0A55A0
056950
025A80
01A540
00AA00
00AA00
00AA00
00AA00
ENDCHAR
STARTCHAR z
ENCODING 122
SWIDTH 714 0
DWIDTH 11 0
BBX 11 12 0 0
BITMAP
155040
155964
156694
6AA9A0
009A50
016580
025A00
05A500
0A5800
25A6A4
5A6AA4
669AA4
ENDCHAR
STARTCHAR braceleft
ENCODING 123
SWIDTH 396 0
DWIDTH 6 0
BBX 6 18 0 -4
BITMAP
0050
0650
1A50
1590
2540
2540
2540
1540
5900
6600
6900
2540
2540
2540
1590
0A50
0650
0050
ENDCHAR
STARTCHAR bar
ENCODING 124
SWIDTH 266 0
DWIDTH 4 0
BBX 4 15 0 -2
BITMAP
56
56
56
56
56
56
56
56
56
56
56
56
56
56
55
ENDCHAR
STARTCHAR braceright
ENCODING 125
SWIDTH 396 0
DWIDTH 6 0
BBX 6 18 0 -4
BITMAP
5400
5600
5940
1680
0A80
0A80
0A80
0A60
05A0
05A0
0A40
0A80
0A80
0A80
6680
5940
5600
5400
ENDCHAR
STARTCHAR asciitilde
ENCODING 126
SWIDTH 665 0
DWIDTH 11 0
BBX 10 3 0 9
BITMAP
1AA950
16AA60
55AA90
ENDCHAR
STARTCHAR uni00A0
ENCODING 160
SWIDTH 108 0
DWIDTH 2 0
BBX 1 1 0 0
BITMAP
00
ENDCHAR
STARTCHAR exclamdown
ENCODING 161
SWIDTH 336 0
DWIDTH 5 0
BBX 5 14 0 -1
BITMAP
5680
5680
5680
5680
5680
5680
5680
5680
5680
1540
1540
1540
1540
2A40
ENDCHAR
STARTCHAR cent
ENCODING 162
SWIDTH 708 0
DWIDTH 11 0
BBX 11 17 0 -2
BITMAP
001000
002500
000400
029590
099698
25A660
5A6A40
558000
954000
568100
2A6980
266A64
09AA64
019680
001100
002500
001000
ENDCHAR
STARTCHAR sterling
ENCODING 163
SWIDTH 689 0
DWIDTH 11 0
BBX 11 14 0 0
BITMAP
005500
0955A0
265594
299640
569500
558000
55AA80
559540
559540
559540
558000
55AA80
55AA80
55AA80
ENDCHAR
STARTCHAR currency
ENCODING 164
SWIDTH 715 0
DWIDTH 11 0
BBX 11 12 0 0
BITMAP
150090
5A0164
269A94
09A990
160160
1500A0
1500A0
160060
099650
2656A4
5A5568
150090
ENDCHAR
STARTCHAR yen
ENCODING 165
SWIDTH 796 0
DWIDTH 13 0
BBX 13 13 0 0
BITMAP
55409540
2A815A00
15529500
0AA5A800
095A5400
0196A000
02655000
00AA8000
00954000
0A95A400
0A95A400
00954000
00954000
ENDCHAR
STARTCHAR brokenbar
ENCODING 166
SWIDTH 263 0
DWIDTH 4 0
BBX 4 15 0 -2
BITMAP
55
56
56
56
56
56
00
00
15
56
56
56
56
56
55
ENDCHAR
STARTCHAR section
ENCODING 167
SWIDTH 108 0
DWIDTH 2 0
BBX 1 1 0 0
BITMAP
00
ENDCHAR
STARTCHAR dieresis
ENCODING 168
SWIDTH 556 0
DWIDTH 9 0
BBX 9 2 0 12
BITMAP
551500
552540
ENDCHAR
STARTCHAR copyright
ENCODING 169
SWIDTH 869 0
DWIDTH 14 0
BBX 14 14 0 0
BITMAP
00154000
01A5A400
0A050A00
187AA240
318020C0
63000090
56000050
56000050
63000090
318020C0
187AD240
0A050A00
01A5A400
00154000
ENDCHAR
STARTCHAR ordfeminine
ENCODING 170
SWIDTH 833 0
DWIDTH 13 0
BBX 13 13 0 -1
BITMAP
00594000
02556400
0995A900
25959A00
1A666540
56805680
55805680
56805A80
2A665A80
26A65A80
09955A80
01955A80
00150000
ENDCHAR
STARTCHAR guillemotleft
ENCODING 171
SWIDTH 911 0
DWIDTH 15 0
BBX 14 8 0 2
BITMAP
00140060
02940650
65A4A690
29646590
19506940
66959650
06541960
006400A0
ENDCHAR
STARTCHAR logicalnot
ENCODING 172
SWIDTH 718 0
DWIDTH 12 0
BBX 10 6 1 3
BITMAP
555550
5556A0
5556A0
5556A0
0002A0
000150
ENDCHAR
STARTCHAR registered
ENCODING 174
SWIDTH 869 0
DWIDTH 14 0
BBX 14 14 0 0
BITMAP
00154000
01A5A400
0A000A00
186A4240
30A5A0C0
60903090
50956050
50AB8050
60918090
309090C0
18505240
0A000A00
01A5A400
00154000
ENDCHAR
STARTCHAR degree
ENCODING 176
SWIDTH 330 0
DWIDTH 5 0
BBX 5 5 0 12
BITMAP
1500
6540
6240
6540
1500
ENDCHAR
STARTCHAR plusminus
ENCODING 177
SWIDTH 598 0
DWIDTH 10 0
BBX 9 10 0 0
BITMAP
01A800
01A800
69AA80
69AA80
69AA80
01A800
01A800
155500
155540
155540
ENDCHAR
STARTCHAR uni00B2
ENCODING 178
SWIDTH 435 0
DWIDTH 7 0
BBX 7 11 0 2
BITMAP
2A90
2A94
0054
00A0
0250
0580
0A00
2900
6AA0
5550
1550
ENDCHAR
STARTCHAR uni00B3
ENCODING 179
SWIDTH 515 0
DWIDTH 8 0
BBX 8 11 0 2
BITMAP
6A90
2A98
2A68
0095
06A4
0698
0566
005A
1A96
2A98
6AA0
ENDCHAR
STARTCHAR acute
ENCODING 180
SWIDTH 472 0
DWIDTH 8 0
BBX 6 4 1 11
BITMAP
0290
2990
9900
5000
ENDCHAR
STARTCHAR uni00B5
ENCODING 181
SWIDTH 802 0
DWIDTH 13 0
BBX 13 13 0 -2
BITMAP
5680A940
5680A940
5680A940
5680A940
5680A940
5680A940
5680A900
56966A00
5695A600
56959800
56956000
56A94000
55400000
ENDCHAR
STARTCHAR paragraph
ENCODING 182
SWIDTH 676 0
DWIDTH 11 0
BBX 10 14 0 -2
BITMAP
005550
065560
169590
29AA90
56AA90
559A90
5A5A90
265A90
095A90
016A90
000A90
000A90
000A90
000A60
ENDCHAR
STARTCHAR periodcentered
ENCODING 183
SWIDTH 260 0
DWIDTH 4 0
BBX 4 3 0 6
BITMAP
69
69
69
ENDCHAR
STARTCHAR cedilla
ENCODING 184
SWIDTH 321 0
DWIDTH 5 0
BBX 5 5 0 -6
BITMAP
1940
2640
5800
5A40
2A40
ENDCHAR
STARTCHAR uni00B9
ENCODING 185
SWIDTH 359 0
DWIDTH 6 0
BBX 5 9 0 4
BITMAP
6A80
6A80
0A80
0A80
0A80
0A80
0A80
0A80
0A80
ENDCHAR
STARTCHAR ordmasculine
ENCODING 186
SWIDTH 835 0
DWIDTH 13 0
BBX 13 13 0 -1
BITMAP
006A4000
066A6400
0A596500
25959A00
1A65A580
55805A80
55801A80
56805680
2A666540
26A59A00
0995A900
02556400
00194000
ENDCHAR
STARTCHAR guillemotright
ENCODING 187
SWIDTH 912 0
DWIDTH 15 0
BBX 14 8 0 2
BITMAP
50008000
5A405900
196469A0
29A46590
15946690
56685960
66909A40
64009000
ENDCHAR
STARTCHAR onequarter
ENCODING 188
SWIDTH 1236 0
DWIDTH 20 0
BBX 20 15 0 -2
BITMAP
6A801A0000
6A80560000
0A80950410
0A80A80A50
0A80681680
0A81582940
0A82545A14
0A82A09618
0A81A0AAA9
0005605555
0009505555
000A805558
0006800018
0015800000
0015400000
ENDCHAR
STARTCHAR onehalf
ENCODING 189
SWIDTH 1154 0
DWIDTH 18 0
BBX 18 15 0 -2
BITMAP
6A801A0000
6A80560000
0A80950000
0A80A86590
0A80686A60
0A815800A0
0A82540150
0A82A00580
0A81A00A00
0005602900
0009505400
000A80AA90
000680AA90
0015800000
0015400000
ENDCHAR
STARTCHAR threequarters
ENCODING 190
SWIDTH 1345 0
DWIDTH 22 0
BBX 21 15 0 -2
BITMAP
6A9002900000
6A9801A00000
2A6805605100
00950950A800
06A40A825800
069806829400
056615856500
005A254A5540
1A962A1AAA80
2A981A055540
6AA056055540
000095055540
0000A8000540
000068000000
000154000000
ENDCHAR
STARTCHAR questiondown
ENCODING 191
SWIDTH 693 0
DWIDTH 11 0
BBX 11 14 0 0
BITMAP
015400
295680
595660
065994
015958
000958
159654
159560
15A590
15A900
054000
1A4000
1A4000
1A4000
ENDCHAR
STARTCHAR Agrave
ENCODING 192
SWIDTH 936 0
DWIDTH 15 0
BBX 15 18 0 0
BITMAP
01900000
06590000
00294000
00010000
00000000
0025A000
005A9400
00995800
00A5A800
015A9500
02965A00
05A9A900
09589580
0A955A80
15A56950
296565A0
1A955690
95800958
ENDCHAR
STARTCHAR Aacute
ENCODING 193
SWIDTH 936 0
DWIDTH 15 0
BBX 15 18 0 0
BITMAP
00001900
00019640
0005A000
00010000
00000000
0025A000
005A9400
00995800
00A5A800
015A9500
02965A00
05A9A900
09589580
0A955A80
15A56950
296565A0
1A955690
95800958
ENDCHAR
STARTCHAR Acircumflex
ENCODING 194
SWIDTH 936 0
DWIDTH 15 0
BBX 15 18 0 0
BITMAP
00094000
000A8000
00165000
00256000
00000000
0025A000
005A9400
00995800
00A5A800
015A9500
02965A00
05A9A900
09589580
0A955A80
15A56950
296565A0
1A955690
95800958
ENDCHAR
STARTCHAR Atilde
ENCODING 195
SWIDTH 936 0
DWIDTH 15 0
BBX 15 17 0 0
BITMAP
01AA9540
026AAA00
059AA900
00000000
0025A000
005A9400
00995800
00A5A800
015A9500
02965A00
05A9A900
09589580
0A955A80
15A56950
296565A0
1A955690
95800958
ENDCHAR
STARTCHAR Adieresis
ENCODING 196
SWIDTH 936 0
DWIDTH 15 0
BBX 15 16 0 0
BITMAP
01545400
01589500
00000000
0025A000
005A9400
00995800
00A5A800
015A9500
02965A00
05A9A900
09589580
0A955A80
15A56950
296565A0
1A955690
95800958
ENDCHAR
STARTCHAR Aring
ENCODING 197
SWIDTH 936 0
DWIDTH 15 0
BBX 15 18 0 0
BITMAP
00054000
00199000
00189000
00155000
00054000
0025A000
005A9400
00995800
00A5A800
015A9500
02965A00
05A9A900
09589580
0A955A80
15A56950
296565A0
1A955690
95800958
ENDCHAR
STARTCHAR AE
ENCODING 198
SWIDTH 1198 0
DWIDTH 19 0
BBX 19 13 0 0
BITMAP
0025AAAAA4
005A9AAAA4
00995AAAA4
00A5A80000
015A950000
02965AAA90
01A9A9AA90
095895AA90
0A955A8000
15A5695000
296565AAA4
1A955AAAA4
95800A5AA4
ENDCHAR
STARTCHAR Ccedilla
ENCODING 199
SWIDTH 852 0
DWIDTH 14 0
BBX 13 20 0 -6
BITMAP
00154000
01955900
05A56640
16656640
29999900
5A501400
55800000
95400000
55800000
5A901400
29A9A900
16656640
05A56940
01955900
001A5000
00194000
00264000
00540000
005A4000
002A4000
ENDCHAR
STARTCHAR Egrave
ENCODING 200
SWIDTH 706 0
DWIDTH 11 0
BBX 11 18 0 0
BITMAP
190000
299000
029400
001000
000000
56AAA4
56AAA4
56AAA4
568000
568000
56A900
56A900
56A900
568000
568000
56AAA4
56AAA4
56AAA4
ENDCHAR
STARTCHAR Eacute
ENCODING 201
SWIDTH 706 0
DWIDTH 11 0
BBX 11 18 0 0
BITMAP
000094
001964
005640
001400
000000
56AAA4
56AAA4
56AAA4
568000
568000
56A900
56A900
56A900
568000
568000
56AAA4
56AAA4
56AAA4
ENDCHAR
STARTCHAR Ecircumflex
ENCODING 202
SWIDTH 706 0
DWIDTH 11 0
BBX 11 18 0 0
BITMAP
005800
00A400
006600
015A00
000000
56AAA4
56AAA4
56AAA4
568000
568000
56A900
56A900
56A900
568000
568000
56AAA4
56AAA4
56AAA4
ENDCHAR
STARTCHAR Edieresis
ENCODING 203
SWIDTH 706 0
DWIDTH 11 0
BBX 11 16 0 0
BITMAP
054550
068560
000000
56AAA4
56AAA4
56AAA4
568000
568000
56A900
56A900
56A900
568000
568000
56AAA4
56AAA4
56AAA4
ENDCHAR
STARTCHAR Igrave
ENCODING 204
SWIDTH 338 0
DWIDTH 5 0
BBX 7 18 -2 0
BITMAP
6400
A640
0A50
0040
0000
0568
0568
0568
0568
0568
0568
0568
0568
0568
0568
0568
0568
0568
ENDCHAR
STARTCHAR Iacute
ENCODING 205
SWIDTH 338 0
DWIDTH 5 0
BBX 8 18 0 0
BITMAP
0025
0659
1590
0500
0000
5680
5680
5680
5680
5680
5680
5680
5680
5680
5680
5680
5680
5680
ENDCHAR
STARTCHAR Icircumflex
ENCODING 206
SWIDTH 338 0
DWIDTH 5 0
BBX 5 18 0 0
BITMAP
1600
2900
1980
5680
0000
5680
5680
5680
5680
5680
5680
5680
5680
5680
5680
5680
5680
5680
ENDCHAR
STARTCHAR Idieresis
ENCODING 207
SWIDTH 338 0
DWIDTH 5 0
BBX 8 16 -1 0
BITMAP
5455
6856
0000
15A0
15A0
15A0
15A0
15A0
15A0
15A0
15A0
15A0
15A0
15A0
15A0
15A0
ENDCHAR
STARTCHAR Eth
ENCODING 208
SWIDTH 905 0
DWIDTH 15 0
BBX 14 13 0 0
BITMAP
2AAAA400
2AAAA600
29AA9980
2A6A5A50
15402560
6AA416A0
6AA406A0
6AA416A0
15402560
2A6A9A50
2AAA9980
2AAAA600
2AAAA400
ENDCHAR
STARTCHAR Ntilde
ENCODING 209
SWIDTH 877 0
DWIDTH 14 0
BBX 14 17 0 0
BITMAP
02AA8500
05AAA600
0A2AA800
00000000
69602550
66942950
59682950
5AA52950
565A2950
56A5A950
565A5950
56A5A950
568A5950
5685A950
56829650
56816990
56809690
ENDCHAR
STARTCHAR Ograve
ENCODING 210
SWIDTH 933 0
DWIDTH 15 0
BBX 15 19 0 -1
BITMAP
01900000
06590000
00654000
00010000
00154000
01955900
05A56540
16656650
29999960
5A501690
55800954
95400554
55800954
5A901694
29A999A0
16656650
05A56940
01955900
00165000
ENDCHAR
STARTCHAR Oacute
ENCODING 211
SWIDTH 933 0
DWIDTH 15 0
BBX 15 19 0 -1
BITMAP
00001900
00019A00
0005A000
00010000
00154000
01955900
05A56540
16656650
29999960
5A501690
55800954
95400554
55800954
5A901694
29A999A0
16656650
05A56940
01955900
00165000
ENDCHAR
STARTCHAR Ocircumflex
ENCODING 212
SWIDTH 933 0
DWIDTH 15 0
BBX 15 19 0 -1
BITMAP
00094000
000A8000
00165000
00256000
00154000
01955900
05A56540
16656650
29999960
5A501690
55800954
95400554
55800954
5A901694
29A999A0
16656650
05A56940
01955900
00165000
ENDCHAR
STARTCHAR Otilde
ENCODING 213
SWIDTH 933 0
DWIDTH 15 0
BBX 15 18 0 -1
BITMAP
01AA9540
026AAA00
055AA900
00154000
01955900
05A56540
16656650
29999960
5A501690
55800954
95400554
55800954
5A901694
29A999A0
16656650
05A56940
01955900
00165000
ENDCHAR
STARTCHAR Odieresis
ENCODING 214
SWIDTH 933 0
DWIDTH 15 0
BBX 15 17 0 -1
BITMAP
01545400
01549500
00155000
01955900
05A56540
16656650
29999960
5A501690
55800954
95400554
55800954
5A901694
29A999A0
16656650
05A56940
01955900
00165000
ENDCHAR
STARTCHAR multiply
ENCODING 215
SWIDTH 790 0
DWIDTH 13 0
BBX 12 12 0 0
BITMAP
010004
596296
259965
0A6658
0569A0
029A50
01A580
025A50
05A5A0
0A5A58
25A5A5
5A525A
ENDCHAR
STARTCHAR Oslash
ENCODING 216
SWIDTH 938 0
DWIDTH 15 0
BBX 15 18 0 -3
BITMAP
00000900
00155580
01955940
05A56640
16656690
29999960
5A501690
55800954
95400554
55800954
5A901694
29A999A0
16656650
05A56940
05955900
09565000
06800000
00400000
ENDCHAR
STARTCHAR Ugrave
ENCODING 217
SWIDTH 905 0
DWIDTH 14 0
BBX 14 19 0 -1
BITMAP
06800000
06680000
00664000
00050000
00000000
558005A0
558006A0
558006A0
558006A0
558006A0
558006A0
558006A0
568016A0
5A802560
29659A50
16656580
09956600
01955800
00164000
ENDCHAR
STARTCHAR Uacute
ENCODING 218
SWIDTH 905 0
DWIDTH 14 0
BBX 14 19 0 -1
BITMAP
00001900
00019A00
00099000
00010000
00000000
558005A0
558006A0
558006A0
558006A0
558006A0
558006A0
558006A0
568016A0
5A802560
29659A50
16656580
09956600
01955800
00164000
ENDCHAR
STARTCHAR Ucircumflex
ENCODING 219
SWIDTH 905 0
DWIDTH 14 0
BBX 14 19 0 -1
BITMAP
00094000
00198000
00268000
00295000
00000000
558005A0
558006A0
558006A0
558006A0
558006A0
558006A0
558006A0
568016A0
5A802560
29659A50
16656580
09956600
01955800
00164000
ENDCHAR
STARTCHAR Udieresis
ENCODING 220
SWIDTH 905 0
DWIDTH 14 0
BBX 14 17 0 -1
BITMAP
01505400
0254A800
00000000
558005A0
558006A0
558006A0
558006A0
558006A0
558006A0
558006A0
568016A0
5A802560
29659A50
16656580
09956600
01955800
00164000
ENDCHAR
STARTCHAR Yacute
ENCODING 221
SWIDTH 789 0
DWIDTH 13 0
BBX 12 18 0 0
BITMAP
000064
000668
001680
000400
000000
5540A5
2A815A
255295
06A568
095A54
0196A0
026950
019A80
009540
00A540
00A540
00A540
00A540
ENDCHAR
STARTCHAR Thorn
ENCODING 222
SWIDTH 798 0
DWIDTH 13 0
BBX 13 15 0 -1
BITMAP
15400000
56800000
56AA9000
56AA9400
56AA6500
56A99A00
5681A900
5680A540
5681A900
56A99A00
56AA6500
56AA9400
56AA9000
56800000
56800000
ENDCHAR
STARTCHAR germandbls
ENCODING 223
SWIDTH 826 0
DWIDTH 13 0
BBX 13 15 0 -1
BITMAP
00594000
06555800
16556600
29959900
5695A540
55959540
55955A00
55956A00
55959680
55805680
55AAA580
55AA9A00
55AA9900
55AAA400
55800000
ENDCHAR
STARTCHAR agrave
ENCODING 224
SWIDTH 832 0
DWIDTH 13 0
BBX 13 17 0 -1
BITMAP
06400000
19640000
01950000
00040000
00594000
06556400
1995A900
25959A00
5A666540
55809580
95405680
55805680
1A665680
26A65680
09955680
01955680
00150000
ENDCHAR
STARTCHAR aacute
ENCODING 225
SWIDTH 832 0
DWIDTH 13 0
BBX 13 17 0 -1
BITMAP
00006400
00066800
00168000
00040000
00594000
06556400
1995A900
25959A00
5A666540
55809580
95405680
55805680
1A665680
26A65680
09955680
01955680
00150000
ENDCHAR
STARTCHAR acircumflex
ENCODING 226
SWIDTH 832 0
DWIDTH 13 0
BBX 13 18 0 -1
BITMAP
00250000
002A0000
00594000
00958000
00000000
00594000
06556400
1995A900
25959A00
5A666540
55809580
95405680
55805680
1A665680
26A65680
09955680
01955680
00150000
ENDCHAR
STARTCHAR atilde
ENCODING 227
SWIDTH 832 0
DWIDTH 13 0
BBX 13 17 0 -1
BITMAP
06AA5400
09AAA800
156AA400
00000000
00594000
06556400
1995A900
25959A00
5A666540
55809580
95405680
55805680
1A665680
26A65680
09955680
01955680
00150000
ENDCHAR
STARTCHAR adieresis
ENCODING 228
SWIDTH 832 0
DWIDTH 13 0
BBX 13 16 0 -1
BITMAP
05515000
05525400
00000000
00594000
06556400
1995A900
25959A00
5A666540
55809580
95405680
55805680
1A665680
26A65680
09955680
01955680
00150000
ENDCHAR
STARTCHAR aring
ENCODING 229
SWIDTH 832 0
DWIDTH 13 0
BBX 13 18 0 -1
BITMAP
00150000
00654000
00624000
00654000
00150000
00594000
06556400
1995A900
25959A00
5A666540
55809580
95405680
55805680
1A665680
26A65680
09955680
01955680
00150000
ENDCHAR
STARTCHAR ae
ENCODING 230
SWIDTH 1166 0
DWIDTH 19 0
BBX 18 13 0 -1
BITMAP
0059405550
0655669550
1995A99550
25959AAAA0
5A66658000
558095AA90
954056AA90
558056AA90
1A66568000
26A656AAA0
099556AAA0
019556AAA0
0015000000
ENDCHAR
STARTCHAR ccedilla
ENCODING 231
SWIDTH 736 0
DWIDTH 12 0
BBX 12 18 0 -6
BITMAP
006A40
066A64
1A5965
299594
5A5540
558000
954000
558000
1A6650
269594
099599
025564
001A40
006500
009900
006000
00A900
006900
ENDCHAR
STARTCHAR egrave
ENCODING 232
SWIDTH 666 0
DWIDTH 11 0
BBX 10 16 0 0
BITMAP
190000
659000
065400
005000
005550
569550
569550
56AAA0
568000
56AA90
56AA90
56AA90
568000
56AAA0
56AAA0
56AAA0
ENDCHAR
STARTCHAR eacute
ENCODING 233
SWIDTH 666 0
DWIDTH 11 0
BBX 10 16 0 0
BITMAP
000190
0019A0
005A00
001000
005550
569550
569550
56AAA0
568000
56AA90
56AA90
56AA90
568000
56AAA0
56AAA0
56AAA0
ENDCHAR
STARTCHAR ecircumflex
ENCODING 234
SWIDTH 666 0
DWIDTH 11 0
BBX 10 17 0 0
BITMAP
009400
00A800
016500
029600
000000
005550
569550
569550
56AAA0
568000
56AA90
56AA90
56AA90
568000
56AAA0
56AAA0
56AAA0
ENDCHAR
STARTCHAR edieresis
ENCODING 235
SWIDTH 666 0
DWIDTH 11 0
BBX 10 15 0 0
BITMAP
154540
154A50
000000
005550
569550
569550
56AAA0
568000
56AA90
56AA90
56AA90
568000
56AAA0
56AAA0
56AAA0
ENDCHAR
STARTCHAR igrave
ENCODING 236
SWIDTH 337 0
DWIDTH 5 0
BBX 7 16 -2 0
BITMAP
6400
A640
0A50
0040
0000
0568
0568
0568
0568
0568
0568
0568
0568
0568
0568
0568
ENDCHAR
STARTCHAR iacute
ENCODING 237
SWIDTH 337 0
DWIDTH 5 0
BBX 8 16 0 0
BITMAP
0025
0659
1590
0500
0000
5680
5680
5680
5680
5680
5680
5680
5680
5680
5680
5680
ENDCHAR
STARTCHAR icircumflex
ENCODING 238
SWIDTH 337 0
DWIDTH 5 0
BBX 5 17 0 0
BITMAP
1600
2900
1980
5680
0000
0000
5680
5680
5680
5680
5680
5680
5680
5680
5680
5680
5680
ENDCHAR
STARTCHAR idieresis
ENCODING 239
SWIDTH 337 0
DWIDTH 5 0
BBX 8 15 -1 0
BITMAP
5455
6856
0000
0000
15A0
15A0
15A0
15A0
15A0
15A0
15A0
15A0
15A0
15A0
15A0
ENDCHAR
STARTCHAR eth
ENCODING 240
SWIDTH 783 0
DWIDTH 13 0
BBX 12 15 0 -1
BITMAP
005500
0A5590
165598
019665
00565A
00006A
0655AA
26A9AA
59A9AA
95A96A
95965A
5A9665
265598
0A55A0
006900
ENDCHAR
STARTCHAR ntilde
ENCODING 241
SWIDTH 787 0
DWIDTH 13 0
BBX 12 16 0 0
BITMAP
06AA14
16AA98
156AA4
000000
000000
69602A
66942A
59682A
5A962A
565A2A
56A59A
565A5A
5625A6
561696
56096A
560296
ENDCHAR
STARTCHAR ograve
ENCODING 242
SWIDTH 833 0
DWIDTH 13 0
BBX 13 17 0 -1
BITMAP
06400000
0A640000
00A50000
00040000
006A4000
066A6400
1A596500
29959A00
5A55A540
55805680
95405A80
55805680
1A666940
26959A00
0995A900
02556400
00194000
ENDCHAR
STARTCHAR oacute
ENCODING 243
SWIDTH 833 0
DWIDTH 13 0
BBX 13 17 0 -1
BITMAP
00006400
00065900
00159000
00050000
006A4000
066A6400
1A596500
29959A00
5A55A540
55805680
95405A80
55805680
1A666940
26959A00
0995A900
02556400
00194000
ENDCHAR
STARTCHAR ocircumflex
ENCODING 244
SWIDTH 833 0
DWIDTH 13 0
BBX 13 18 0 -1
BITMAP
00160000
002A0000
00594000
00968000
00000000
006A4000
066A6400
1A596500
29959A00
5A55A540
55805680
95405A80
55805680
1A666940
26959A00
0995A900
02556400
00194000
ENDCHAR
STARTCHAR otilde
ENCODING 245
SWIDTH 833 0
DWIDTH 13 0
BBX 13 17 0 -1
BITMAP
06AA5500
09AAA500
066AA400
00000000
006A4000
066A6400
1A596500
29959A00
5A55A540
55805680
95405A80
55805680
1A666940
26959A00
0995A900
02556400
00194000
ENDCHAR
STARTCHAR odieresis
ENCODING 246
SWIDTH 833 0
DWIDTH 13 0
BBX 13 16 0 -1
BITMAP
01515400
05A15400
00000000
006A4000
066A6400
1A596500
29959A00
5A55A540
55805680
95405A80
55805680
1A666940
26959A00
0995A900
02556400
00194000
ENDCHAR
STARTCHAR divide
ENCODING 247
SWIDTH 260 0
DWIDTH 4 0
BBX 6 9 -1 1
BITMAP
1540
1580
1540
1540
1550
5550
0540
1580
1580
ENDCHAR
STARTCHAR oslash
ENCODING 248
SWIDTH 832 0
DWIDTH 13 0
BBX 13 15 0 -2
BITMAP
00001400
006A9500
066A6800
1A596500
29959A00
5A55A540
55805680
95405A80
55805680
5A666540
26959A00
09959900
06556400
05594000
01000000
ENDCHAR
STARTCHAR ugrave
ENCODING 249
SWIDTH 795 0
DWIDTH 13 0
BBX 12 17 0 -1
BITMAP
064000
196400
019500
001400
000000
5580AA
5580AA
5580AA
5580AA
5580AA
5580AA
5680AA
1A665A
259665
099598
025560
005900
ENDCHAR
STARTCHAR uacute
ENCODING 250
SWIDTH 795 0
DWIDTH 13 0
BBX 12 17 0 -1
BITMAP
000064
000668
001680
000400
000000
5580AA
5580AA
5580AA
5580AA
5580AA
5580AA
5680AA
1A665A
259665
099598
025560
005900
ENDCHAR
STARTCHAR ucircumflex
ENCODING 251
SWIDTH 795 0
DWIDTH 13 0
BBX 12 18 0 -1
BITMAP
002500
002A00
005940
00A580
000000
000000
5580AA
5580AA
5580AA
5580AA
5580AA
5580AA
5680AA
1A665A
259665
099598
025560
005900
ENDCHAR
STARTCHAR udieresis
ENCODING 252
SWIDTH 795 0
DWIDTH 13 0
BBX 12 16 0 -1
BITMAP
055150
055290
000000
000000
5580AA
5580AA
5580AA
5580AA
5580AA
5580AA
5680AA
1A665A
259665
099598
025560
005900
ENDCHAR
STARTCHAR yacute
ENCODING 253
SWIDTH 733 0
DWIDTH 12 0
BBX 11 16 0 0
BITMAP
0000A4
000A64
002640
001400
000000
5582A4
2A5568
15AA54
0A55A0
056950
025A80
01A540
00AA00
00AA00
00AA00
00AA00
ENDCHAR
STARTCHAR thorn
ENCODING 254
SWIDTH 833 0
DWIDTH 13 0
BBX 13 15 0 -2
BITMAP
56800000
56800000
56800000
56AA9000
56955900
56955640
56956580
56959680
56AA9680
56AAA940
5695A600
56956800
56954000
56800000
55400000
ENDCHAR
STARTCHAR ydieresis
ENCODING 255
SWIDTH 733 0
DWIDTH 12 0
BBX 11 15 0 0
BITMAP
054150
0A81A0
000000
000000
5582A4
2A5568
15AA54
0A55A0
056950
025A80
01A540
00AA00
00AA00
00AA00
00AA00
ENDCHAR
STARTCHAR Amacron
ENCODING 256
SWIDTH 936 0
DWIDTH 15 0
BBX 15 13 0 0
BITMAP
0025A000
005A9400
00995800
00A5A800
015A9500
02965A00
05A9A900
09589580
0A955A80
15A56950
296565A0
1A955690
95800958
ENDCHAR
STARTCHAR amacron
ENCODING 257
SWIDTH 832 0
DWIDTH 13 0
BBX 13 13 0 -1
BITMAP
00594000
06556400
1995A900
25959A00
5A666540
55809580
95405680
55805680
1A665680
26A65680
09955680
01955680
00150000
ENDCHAR
STARTCHAR Abreve
ENCODING 258
SWIDTH 936 0
DWIDTH 15 0
BBX 15 17 0 0
BITMAP
00145000
00199000
00054000
00000000
0025A000
005A9400
00995800
00A5A800
015A9500
02965A00
05A9A900
09589580
0A955A80
15A56950
296565A0
1A955690
95800958
ENDCHAR
STARTCHAR abreve
ENCODING 259
SWIDTH 832 0
DWIDTH 13 0
BBX 13 16 0 -1
BITMAP
00514000
00664000
00150000
00594000
06556400
1995A900
25959A00
5A666540
55809580
95405680
55805680
1A665680
26A65680
09955680
01955680
00150000
ENDCHAR
STARTCHAR Aogonek
ENCODING 260
SWIDTH 937 0
DWIDTH 15 0
BBX 15 18 0 -5
BITMAP
0025A000
002A9400
00595800
00A5A800
016A9500
02565A00
02A5A940
05689580
0A595A80
16A56950
256555A0
2A555A94
56850958
00250000
00580000
00550000
00560000
00150000
ENDCHAR
STARTCHAR aogonek
ENCODING 261
SWIDTH 832 0
DWIDTH 13 0
BBX 13 18 0 -6
BITMAP
00594000
06556400
1995A900
25959A00
5A666540
55809580
95405680
55805680
1A665680
26A65680
09955680
01955680
00290000
00940000
01600000
01540000
01580000
00540000
ENDCHAR
STARTCHAR Cacute
ENCODING 262
SWIDTH 852 0
DWIDTH 14 0
BBX 13 19 0 -1
BITMAP
00001900
00019A00
0005A000
00010000
00154000
01955900
05A56640
16656640
29999900
5A501400
55800000
95400000
55800000
5A901400
29A9A900
16656640
05A56940
01955900
00165000
ENDCHAR
STARTCHAR cacute
ENCODING 263
SWIDTH 736 0
DWIDTH 12 0
BBX 12 17 0 -1
BITMAP
000064
000659
001590
000500
006A40
066A64
1A5965
299594
5A5540
558000
954000
558000
1A6650
269594
099599
025564
001940
ENDCHAR
STARTCHAR Cdotaccent
ENCODING 266
SWIDTH 852 0
DWIDTH 14 0
BBX 13 18 0 -1
BITMAP
000A4000
000A4000
000A4000
00154000
01955900
05A56640
16656640
29999900
5A501400
55800000
95400000
55800000
5A901400
29A9A900
16656640
05A56940
01955900
00165000
ENDCHAR
STARTCHAR cdotaccent
ENCODING 267
SWIDTH 736 0
DWIDTH 12 0
BBX 12 16 0 -1
BITMAP
001A00
001A00
001A00
006A40
066A64
1A5965
299594
5A5540
558000
954000
558000
1A6650
269594
099599
025564
001940
ENDCHAR
STARTCHAR Ccaron
ENCODING 268
SWIDTH 852 0
DWIDTH 14 0
BBX 13 19 0 -1
BITMAP
00246000
00165000
000A8000
00098000
00154000
01955900
05A56640
16656640
29999900
5A501400
55800000
95400000
55800000
5A901400
29A9A900
16656640
05A56940
01955900
00165000
ENDCHAR
STARTCHAR ccaron
ENCODING 269
SWIDTH 736 0
DWIDTH 12 0
BBX 12 18 0 -1
BITMAP
005180
005940
002900
001600
000000
006A40
066A64
1A5965
299594
5A5540
558000
954000
558000
1A6650
269594
099599
025564
001940
ENDCHAR
STARTCHAR Dcaron
ENCODING 270
SWIDTH 886 0
DWIDTH 14 0
BBX 14 18 0 0
BITMAP
00195000
00268000
00158000
00094000
00000000
6AAAA400
5AAA9500
56AA9940
56AA6680
56806950
56802560
56801560
56802560
56802950
56AA5680
56AA9940
5AAA9600
6AAAA400
ENDCHAR
STARTCHAR dcaron
ENCODING 271
SWIDTH 1084 0
DWIDTH 17 0
BBX 17 12 0 0
BITMAP
1555000540
6555A00A80
5955990680
56AA9A0980
56AA654640
5680968400
5680568000
5680958000
56AA694000
56AA560000
5AAA980000
6AAA900000
ENDCHAR
STARTCHAR Dcroat
ENCODING 272
SWIDTH 888 0
DWIDTH 14 0
BBX 15 13 -1 0
BITMAP
1AAAA900
16AAA540
15AAA650
15AA99A0
15A01A54
45A90958
45A90568
55A90958
15A00A54
15AA95A0
15AAA650
16AAA580
1AAAA900
ENDCHAR
STARTCHAR dcroat
ENCODING 273
SWIDTH 833 0
DWIDTH 13 0
BBX 14 12 -1 0
BITMAP
05554000
19556800
16556640
15AAA680
15AA9950
45A525A0
55A515A0
15A52560
15AA9A50
15AA9580
16AAA600
1AAAA400
ENDCHAR
STARTCHAR Emacron
ENCODING 274
SWIDTH 706 0
DWIDTH 11 0
BBX 11 13 0 0
BITMAP
56AAA4
56AAA4
56AAA4
568000
568000
56A900
56A900
56A900
568000
568000
56AAA4
56AAA4
56AAA4
ENDCHAR
STARTCHAR emacron
ENCODING 275
SWIDTH 666 0
DWIDTH 11 0
BBX 10 12 0 0
BITMAP
005550
569550
569550
56AAA0
568000
56AA90
56AA90
56AA90
568000
56AAA0
56AAA0
56AAA0
ENDCHAR
STARTCHAR Ebreve
ENCODING 276
SWIDTH 706 0
DWIDTH 11 0
BBX 11 17 0 0
BITMAP
014500
019900
005400
000000
56AAA4
56AAA4
56AAA4
568000
568000
56A900
56A900
56A900
568000
568000
56AAA4
56AAA4
56AAA4
ENDCHAR
STARTCHAR ebreve
ENCODING 277
SWIDTH 666 0
DWIDTH 11 0
BBX 10 15 0 0
BITMAP
014500
019900
005400
005550
569550
569550
56AAA0
568000
56AA90
56AA90
56AA90
568000
56AAA0
56AAA0
56AAA0
ENDCHAR
STARTCHAR Edotaccent
ENCODING 278
SWIDTH 706 0
DWIDTH 11 0
BBX 11 17 0 0
BITMAP
006800
006800
006800
000000
56AAA4
56AAA4
56AAA4
568000
568000
56A900
56A900
56A900
568000
568000
56AAA4
56AAA4
56AAA4
ENDCHAR
STARTCHAR edotaccent
ENCODING 279
SWIDTH 666 0
DWIDTH 11 0
BBX 10 15 0 0
BITMAP
00A400
00A400
00A400
005550
569550
569550
56AAA0
568000
56AA90
56AA90
56AA90
568000
56AAA0
56AAA0
56AAA0
ENDCHAR
STARTCHAR Eogonek
ENCODING 280
SWIDTH 706 0
DWIDTH 11 0
BBX 11 18 0 -5
BITMAP
55AAA4
56AAA4
56AAA4
568000
568000
56A900
56A900
56A900
568000
568000
56AAA4
56AAA4
56AAB8
000094
000060
000164
000168
000054
ENDCHAR
STARTCHAR eogonek
ENCODING 281
SWIDTH 666 0
DWIDTH 11 0
BBX 10 17 0 -5
BITMAP
005550
569550
569550
56AAA0
568000
56AA90
56AA90
56AA90
568000
56AAA0
56AAA0
56AAF0
000150
000250
000290
0002A0
000150
ENDCHAR
STARTCHAR Ecaron
ENCODING 282
SWIDTH 706 0
DWIDTH 11 0
BBX 11 18 0 0
BITMAP
015900
016600
00A500
006800
000000
56AAA4
56AAA4
56AAA4
568000
568000
56A900
56A900
56A900
568000
568000
56AAA4
56AAA4
56AAA4
ENDCHAR
STARTCHAR ecaron
ENCODING 283
SWIDTH 666 0
DWIDTH 11 0
BBX 10 17 0 0
BITMAP
025500
016500
00A800
009400
000000
005550
569550
569550
56AAA0
568000
56AA90
56AA90
56AA90
568000
56AAA0
56AAA0
56AAA0
ENDCHAR
STARTCHAR Gbreve
ENCODING 286
SWIDTH 908 0
DWIDTH 15 0
BBX 14 18 0 -1
BITMAP
00145000
00199000
00054000
00154000
01955900
05A56640
16656640
29999900
5A501400
55800000
95400550
55800AA0
5A800AA0
29696AA0
16656AA0
09A56AA0
01955AA0
00165000
ENDCHAR
STARTCHAR gbreve
ENCODING 287
SWIDTH 827 0
DWIDTH 13 0
BBX 13 16 0 -1
BITMAP
00514000
00664000
00150000
006A4000
066A6400
1A596500
29959400
5A554000
55800000
95405540
55805580
1A669580
26959580
09959580
02559580
00194000
ENDCHAR
STARTCHAR Gdotaccent
ENCODING 288
SWIDTH 908 0
DWIDTH 15 0
BBX 14 18 0 -1
BITMAP
000A4000
000A4000
000A4000
00154000
01955900
05A56640
16656640
29999900
5A501400
55800000
95400550
55800AA0
5A800AA0
29696AA0
16656AA0
09A56AA0
01955AA0
00165000
ENDCHAR
STARTCHAR gdotaccent
ENCODING 289
SWIDTH 827 0
DWIDTH 13 0
BBX 13 16 0 -1
BITMAP
001A0000
001A0000
001A0000
006A4000
066A6400
1A596500
29959400
5A554000
55800000
95405540
55805580
1A669580
26959580
09959580
02559580
00194000
ENDCHAR
STARTCHAR Gcommaaccent
ENCODING 290
SWIDTH 908 0
DWIDTH 15 0
BBX 14 20 0 -6
BITMAP
00154000
01955900
05A56640
16656640
29999900
5A501400
55800000
95400550
55800AA0
5A800AA0
29696AA0
16656AA0
09A56AA0
01955AA0
00165000
00054000
000A8000
00068000
00098000
00064000
ENDCHAR
STARTCHAR gcommaaccent
ENCODING 291
SWIDTH 827 0
DWIDTH 13 0
BBX 13 13 0 -1
BITMAP
006A4000
066A6400
1A596500
29959400
5A554000
55800000
95405540
55805580
1A669580
26959580
09959580
02559580
00194000
ENDCHAR
STARTCHAR Hcircumflex
ENCODING 292
SWIDTH 901 0
DWIDTH 14 0
BBX 14 18 0 0
BITMAP
00094000
00198000
00268000
00295000
00000000
568015A0
568015A0
568015A0
568015A0
568015A0
56AAA5A0
56AAA5A0
56AAA5A0
568015A0
568015A0
568015A0
568015A0
568015A0
ENDCHAR
STARTCHAR hcircumflex
ENCODING 293
SWIDTH 830 0
DWIDTH 13 0
BBX 13 17 0 0
BITMAP
00160000
002A0000
00594000
00968000
00000000
00000000
56805580
56805580
56805580
56959580
56959580
56959580
56AA9580
56805580
56805580
56805580
56805580
ENDCHAR
STARTCHAR Hbar
ENCODING 294
SWIDTH 901 0
DWIDTH 14 0
BBX 15 13 0 0
BITMAP
568015A0
169545A4
568015A0
569555A4
568015A0
56AAA5A0
56AAA5A0
56AAA5A0
568015A0
568015A0
568015A0
568015A0
568015A0
ENDCHAR
STARTCHAR hbar
ENCODING 295
SWIDTH 830 0
DWIDTH 13 0
BBX 14 11 0 0
BITMAP
56805580
16955550
96AA9590
56959580
56959580
56959580
56AA9580
56805580
56805580
56805580
56805580
ENDCHAR
STARTCHAR Itilde
ENCODING 296
SWIDTH 338 0
DWIDTH 5 0
BBX 10 17 -2 0
BITMAP
6AA550
9AAA50
A2AA80
000000
056800
056800
056800
056800
056800
056800
056800
056800
056800
056800
056800
056800
056800
ENDCHAR
STARTCHAR itilde
ENCODING 297
SWIDTH 337 0
DWIDTH 5 0
BBX 10 16 -2 0
BITMAP
6AA550
9AAA50
A2AA80
000000
000000
056800
056800
056800
056800
056800
056800
056800
056800
056800
056800
056800
ENDCHAR
STARTCHAR Imacron
ENCODING 298
SWIDTH 338 0
DWIDTH 5 0
BBX 5 13 0 0
BITMAP
5680
5680
5680
5680
5680
5680
5680
5680
5680
5680
5680
5680
5680
ENDCHAR
STARTCHAR imacron
ENCODING 299
SWIDTH 337 0
DWIDTH 5 0
BBX 5 11 0 0
BITMAP
5680
5680
5680
5680
5680
5680
5680
5680
5680
5680
5680
ENDCHAR
STARTCHAR Ibreve
ENCODING 300
SWIDTH 338 0
DWIDTH 5 0
BBX 5 17 0 0
BITMAP
5140
6640
1500
0000
5680
5680
5680
5680
5680
5680
5680
5680
5680
5680
5680
5680
5680
ENDCHAR
STARTCHAR ibreve
ENCODING 301
SWIDTH 337 0
DWIDTH 5 0
BBX 5 15 0 0
BITMAP
5140
6640
1500
0000
5680
5680
5680
5680
5680
5680
5680
5680
5680
5680
5680
ENDCHAR
STARTCHAR Iogonek
ENCODING 302
SWIDTH 338 0
DWIDTH 5 0
BBX 5 18 0 -5
BITMAP
5680
5680
5680
5680
5680
5680
5680
5680
5680
5680
5680
5680
57C0
0940
0600
0640
0680
0540
ENDCHAR
STARTCHAR iogonek
ENCODING 303
SWIDTH 337 0
DWIDTH 5 0
BBX 5 16 0 -5
BITMAP
5680
5680
5680
5680
5680
5680
5680
5680
5680
5680
57C0
0940
0600
0640
0680
0540
ENDCHAR
STARTCHAR Idotaccent
ENCODING 304
SWIDTH 338 0
DWIDTH 5 0
BBX 5 17 0 0
BITMAP
1A00
1A00
1A00
0000
5680
5680
5680
5680
5680
5680
5680
5680
5680
5680
5680
5680
5680
ENDCHAR
STARTCHAR dotlessi
ENCODING 305
SWIDTH 337 0
DWIDTH 5 0
BBX 5 11 0 0
BITMAP
5680
5680
5680
5680
5680
5680
5680
5680
5680
5680
5680
ENDCHAR
STARTCHAR IJ
ENCODING 306
SWIDTH 774 0
DWIDTH 12 0
BBX 12 14 0 -1
BITMAP
55815A
56815A
56815A
56815A
56815A
56815A
56815A
56815A
56815A
568656
568565
568598
568560
000940
ENDCHAR
STARTCHAR ij
ENCODING 307
SWIDTH 729 0
DWIDTH 12 0
BBX 11 13 0 -2
BITMAP
5682A8
5682A8
5682A8
5682A8
5682A8
5682A8
5682A8
5682A8
5689A8
568658
568660
000590
000900
ENDCHAR
STARTCHAR Jcircumflex
ENCODING 308
SWIDTH 434 0
DWIDTH 7 0
BBX 7 19 0 -1
BITMAP
0250
06A0
0990
0A54
0000
0A54
0A54
0A54
0A54
0A54
0A54
0A54
0A54
0A54
5690
59A0
5690
5640
6400
ENDCHAR
STARTCHAR jcircumflex
ENCODING 309
SWIDTH 393 0
DWIDTH 6 0
BBX 6 19 0 -2
BITMAP
0580
0A80
1650
25A0
0000
0000
1560
1560
1560
1560
1560
1560
1560
1560
6950
5650
5980
5600
6400
ENDCHAR
STARTCHAR Kcommaaccent
ENCODING 310
SWIDTH 815 0
DWIDTH 13 0
BBX 13 19 0 -6
BITMAP
5680A540
56815A00
56829500
56856800
568A5400
5695A000
56A96000
5695A000
568A5400
56856800
56829500
56815A00
5680A540
00000000
00150000
00290000
00190000
001A0000
00190000
ENDCHAR
STARTCHAR kcommaaccent
ENCODING 311
SWIDTH 801 0
DWIDTH 13 0
BBX 13 17 0 -6
BITMAP
56816900
56829600
5685A800
568A5400
5695A000
56A96000
5695A000
568A5800
5685A800
56825600
56816940
00000000
00150000
002A0000
001A0000
001A0000
00190000
ENDCHAR
STARTCHAR kgreenlandic
ENCODING 312
SWIDTH 801 0
DWIDTH 13 0
BBX 13 11 0 0
BITMAP
56816900
56829600
5685A800
568A5400
5695A000
56A96000
5695A000
568A5800
5685A800
56825600
56816940
ENDCHAR
STARTCHAR Lacute
ENCODING 313
SWIDTH 604 0
DWIDTH 10 0
BBX 10 18 0 0
BITMAP
000190
002990
009900
005000
000000
568000
568000
568000
568000
568000
568000
568000
568000
568000
568000
56AA80
56AA80
56AA80
ENDCHAR
STARTCHAR lacute
ENCODING 314
SWIDTH 583 0
DWIDTH 9 0
BBX 9 16 0 0
BITMAP
002500
065900
159000
050000
000000
568000
568000
568000
568000
568000
568000
568000
568000
56AA40
56AA40
56AA40
ENDCHAR
STARTCHAR Lcommaaccent
ENCODING 315
SWIDTH 604 0
DWIDTH 10 0
BBX 9 19 0 -6
BITMAP
568000
568000
568000
568000
568000
568000
568000
568000
568000
568000
56AA80
56AA80
56AA80
000000
015400
015400
015400
019400
016000
ENDCHAR
STARTCHAR lcommaaccent
ENCODING 316
SWIDTH 583 0
DWIDTH 9 0
BBX 9 17 0 -6
BITMAP
568000
568000
568000
568000
568000
568000
568000
568000
56AA40
56AA40
56AA40
000000
015000
029400
019400
019000
019000
ENDCHAR
STARTCHAR Lcaron
ENCODING 317
SWIDTH 856 0
DWIDTH 14 0
BBX 14 14 0 0
BITMAP
00000540
55800A50
56800650
56800640
56800580
56800000
56800000
56800000
56800000
56800000
56800000
56AA8000
56AA8000
56AA8000
ENDCHAR
STARTCHAR lcaron
ENCODING 318
SWIDTH 584 0
DWIDTH 9 0
BBX 9 12 0 0
BITMAP
000540
568680
568680
568980
568600
568400
568000
568000
568000
56AA40
56AA40
56AA40
ENDCHAR
STARTCHAR Ldot
ENCODING 319
SWIDTH 604 0
DWIDTH 10 0
BBX 9 13 0 0
BITMAP
568000
568000
568000
568000
568000
569A40
569A40
569A40
568000
568000
56AA80
56AA80
56AA80
ENDCHAR
STARTCHAR ldot
ENCODING 320
SWIDTH 582 0
DWIDTH 9 0
BBX 9 11 0 0
BITMAP
568000
568000
569A40
569A40
569A40
568000
568000
568000
56AA40
56AA40
56AA40
ENDCHAR
STARTCHAR Lslash
ENCODING 321
SWIDTH 604 0
DWIDTH 10 0
BBX 10 13 -1 0
BITMAP
15A000
15A000
15A000
15A600
15A640
45A640
45A400
15A000
55A000
15A000
15AAA0
15AAA0
15AAA0
ENDCHAR
STARTCHAR lslash
ENCODING 322
SWIDTH 581 0
DWIDTH 9 0
BBX 10 11 -1 0
BITMAP
15A000
15A000
15AA00
15A600
85A640
85A000
55A000
55A000
15AA90
15AA90
15AA90
ENDCHAR
STARTCHAR Nacute
ENCODING 323
SWIDTH 877 0
DWIDTH 14 0
BBX 14 18 0 0
BITMAP
00001900
00019900
00099000
00010000
00000000
69602550
66942950
59682950
5AA52950
565A2950
56A5A950
565A5950
56A5A950
568A5950
5685A950
56829650
56816990
56809690
ENDCHAR
STARTCHAR nacute
ENCODING 324
SWIDTH 787 0
DWIDTH 13 0
BBX 12 16 0 0
BITMAP
000064
000668
001680
000400
000000
69602A
66942A
59682A
5A962A
565A2A
56A59A
565A5A
5625A6
561696
56096A
560296
ENDCHAR
STARTCHAR Ncommaaccent
ENCODING 325
SWIDTH 877 0
DWIDTH 14 0
BBX 14 19 0 -6
BITMAP
69602550
66942950
59682950
5AA52950
565A2950
56A5A950
565A5950
56A5A950
568A5950
5685A950
56829650
56816990
56809690
00000000
00154000
00154000
00054000
00194000
00060000
ENDCHAR
STARTCHAR ncommaaccent
ENCODING 326
SWIDTH 787 0
DWIDTH 13 0
BBX 12 17 0 -6
BITMAP
69602A
66942A
59682A
5A962A
565A2A
56A59A
565A5A
5625A6
561696
56096A
560296
000000
001500
001A00
001A00
002600
001800
ENDCHAR
STARTCHAR Ncaron
ENCODING 327
SWIDTH 877 0
DWIDTH 14 0
BBX 14 18 0 0
BITMAP
00555000
00268000
00154000
000D0000
00000000
69602550
66942950
59682950
5AA52950
565A2950
56A5A950
565A5950
56A5A950
568A5950
5685A950
56829650
56816990
56809690
ENDCHAR
STARTCHAR ncaron
ENCODING 328
SWIDTH 787 0
DWIDTH 13 0
BBX 12 17 0 0
BITMAP
006540
009940
005A00
002500
000000
000000
69602A
66942A
59682A
5A962A
565A2A
56A59A
565A5A
5625A6
561696
56096A
560296
ENDCHAR
STARTCHAR Eng
ENCODING 330
SWIDTH 874 0
DWIDTH 14 0
BBX 14 18 0 -5
BITMAP
69602950
66942950
59682950
56962950
56696950
5696A950
56596950
56A5A950
568A6950
5685A950
56826950
5680A950
56806950
00002A50
00019A80
00019980
0001A600
0001A400
ENDCHAR
STARTCHAR eng
ENCODING 331
SWIDTH 691 0
DWIDTH 11 0
BBX 11 16 0 -5
BITMAP
696154
669554
596A54
5A9654
565954
56A654
565A54
562654
561654
560A54
560254
000254
000690
000660
000580
000400
ENDCHAR
STARTCHAR Omacron
ENCODING 332
SWIDTH 933 0
DWIDTH 15 0
BBX 15 15 0 -1
BITMAP
00154000
01955900
05A56540
16656650
29999960
5A501690
55800954
95400554
55800954
5A901694
29A999A0
16656650
05A56940
01955900
00165000
ENDCHAR
STARTCHAR omacron
ENCODING 333
SWIDTH 833 0
DWIDTH 13 0
BBX 13 13 0 -1
BITMAP
006A4000
066A6400
1A596500
29959A00
5A55A540
55805680
95405A80
55805680
1A666940
26959A00
0995A900
02556400
00194000
ENDCHAR
STARTCHAR Obreve
ENCODING 334
SWIDTH 933 0
DWIDTH 15 0
BBX 15 18 0 -1
BITMAP
00145000
00199000
00054000
00154000
01955900
05A56540
16656650
29999960
5A501690
55800954
95400554
55800954
5A901694
29A999A0
16656650
05A56940
01955900
00165000
ENDCHAR
STARTCHAR obreve
ENCODING 335
SWIDTH 833 0
DWIDTH 13 0
BBX 13 16 0 -1
BITMAP
00514000
00664000
00150000
006A4000
066A6400
1A596500
29959A00
5A55A540
55805680
95405A80
55805680
1A666940
26959A00
0995A900
02556400
00194000
ENDCHAR
STARTCHAR Ohungarumlaut
ENCODING 336
SWIDTH 933 0
DWIDTH 15 0
BBX 15 19 0 -1
BITMAP
00064064
00659668
01591680
00400400
00154000
01955900
05A56540
16656650
29999960
5A501690
55800954
95400554
55800954
5A901694
29A999A0
16656650
05A56940
01955900
00165000
ENDCHAR
STARTCHAR ohungarumlaut
ENCODING 337
SWIDTH 833 0
DWIDTH 13 0
BBX 15 17 0 -1
BITMAP
00094190
01965964
05645640
01401000
006A4000
066A6400
1A596500
29959A00
5A55A540
55805680
95405A80
55805680
1A666940
26959A00
0995A900
02556400
00194000
ENDCHAR
STARTCHAR OE
ENCODING 338
SWIDTH 1317 0
DWIDTH 21 0
BBX 21 15 0 -1
BITMAP
001550000000
0195591AAA40
05A5651AAA40
1665661AAA40
299999140000
5A5016140000
5580091A9000
9540091A9000
5580091A9000
5A9016140000
29A999140000
1665661AAA40
05A5691AAA40
0195591AAA40
001650000000
ENDCHAR
STARTCHAR oe
ENCODING 339
SWIDTH 1174 0
DWIDTH 19 0
BBX 18 13 0 -1
BITMAP
006A405550
066A5A9550
1A595A9550
28849AAAA0
5A559A8000
51805AAA90
90405AAA90
51804AAA90
1A265A8000
25918AAAA0
09909AAAA0
02555AAAA0
0019400000
ENDCHAR
STARTCHAR Racute
ENCODING 340
SWIDTH 843 0
DWIDTH 14 0
BBX 13 18 0 0
BITMAP
00064000
00659000
01590000
00400000
00000000
6AAAA400
5AAAA600
56AA9940
56AA9680
56802A80
56AA9A80
56956580
56956A00
56955900
5696A800
56829500
56815A00
5680AA00
ENDCHAR
STARTCHAR Rcommaaccent
ENCODING 342
SWIDTH 843 0
DWIDTH 14 0
BBX 13 19 0 -6
BITMAP
6AAAA400
5AAAA600
56AA9940
56AA9680
56802A80
56AA9A80
56956580
56956A00
56955900
5696A800
56829500
56815A00
5680AA00
00000000
00150000
002A0000
001A0000
00160000
00190000
ENDCHAR
STARTCHAR rcommaaccent
ENCODING 343
SWIDTH 831 0
DWIDTH 13 0
BBX 13 18 0 -6
BITMAP
15554000
65556800
59556600
56AAA940
56AA9680
56AA9680
56956580
56956600
56955900
569AA800
5682A800
56825500
00000000
00150000
005A0000
00160000
00260000
00180000
ENDCHAR
STARTCHAR Rcaron
ENCODING 344
SWIDTH 843 0
DWIDTH 14 0
BBX 13 18 0 0
BITMAP
09180000
05940000
02A00000
02600000
00000000
6AAAA400
5AAAA600
56AA9940
56AA9680
56802A80
56AA9A80
56956580
56956A00
56955900
5696A800
56829500
56815A00
5680AA00
ENDCHAR
STARTCHAR rcaron
ENCODING 345
SWIDTH 831 0
DWIDTH 13 0
BBX 13 17 0 0
BITMAP
00564000
00158000
00294000
001A0000
00000000
15554000
65556800
59556600
56AAA940
56AA9680
56AA9680
56956580
56956600
56955900
569AA800
5682A800
56825500
ENDCHAR
STARTCHAR Sacute
ENCODING 346
SWIDTH 682 0
DWIDTH 11 0
BBX 11 19 0 -1
BITMAP
000190
001964
005640
001000
005500
095590
265594
5A5640
559500
559500
5A5580
265660
095990
016A54
015A54
065590
595660
295580
01A500
ENDCHAR
STARTCHAR sacute
ENCODING 347
SWIDTH 683 0
DWIDTH 11 0
BBX 11 17 0 -1
BITMAP
000190
001964
005640
001000
016500
1955A0
2A5594
565640
560000
596A40
25AA60
06A994
000154
16A994
5A5A60
1A5680
005400
ENDCHAR
STARTCHAR Scircumflex
ENCODING 348
SWIDTH 682 0
DWIDTH 11 0
BBX 11 19 0 -1
BITMAP
009400
00A800
016500
029600
005500
095590
265594
5A5640
559500
559500
5A5580
265660
095990
016A54
015A54
065590
595660
295580
01A500
ENDCHAR
STARTCHAR scircumflex
ENCODING 349
SWIDTH 683 0
DWIDTH 11 0
BBX 11 18 0 -1
BITMAP
009400
00A800
016500
029600
000000
016500
1955A0
2A5594
565640
560000
596A40
25AA60
06A994
000154
16A994
5A5A60
1A5680
005400
ENDCHAR
STARTCHAR Scedilla
ENCODING 350
SWIDTH 682 0
DWIDTH 11 0
BBX 11 20 0 -6
BITMAP
005500
095590
265594
5A5640
559500
559500
5A5580
265660
095990
016A54
015A54
065590
595660
295580
01A500
019400
026400
054000
05A000
02A000
ENDCHAR
STARTCHAR scedilla
ENCODING 351
SWIDTH 683 0
DWIDTH 11 0
BBX 11 17 0 -5
BITMAP
016500
1955A0
2A5594
565640
560000
596A40
25AA60
06A994
000154
16A994
5A5A60
1A6680
01E400
026400
054000
05A000
02A000
ENDCHAR
STARTCHAR Scaron
ENCODING 352
SWIDTH 682 0
DWIDTH 11 0
BBX 11 19 0 -1
BITMAP
024600
016500
00A800
009800
005500
095590
265594
5A5640
559500
559500
5A5580
265660
095990
016A54
015A54
065590
595660
295580
01A500
ENDCHAR
STARTCHAR scaron
ENCODING 353
SWIDTH 683 0
DWIDTH 11 0
BBX 11 18 0 -1
BITMAP
024600
016500
00A800
009800
000000
016500
1955A0
2A5594
565640
560000
596A40
25AA60
06A994
000154
16A994
5A5A60
1A5680
005400
ENDCHAR
STARTCHAR Tcommaaccent
ENCODING 354
SWIDTH 591 0
DWIDTH 9 0
BBX 9 18 0 -5
BITMAP
6AAA80
6AAA80
6AAA80
056800
056800
056800
056800
056800
056800
056800
056800
056800
056800
026000
09A000
060000
0A9000
069000
ENDCHAR
STARTCHAR tcommaaccent
ENCODING 355
SWIDTH 588 0
DWIDTH 9 0
BBX 9 17 0 -5
BITMAP
155540
555540
555540
6AAA80
056800
056800
056800
056800
056800
056800
056800
056800
026000
09A000
060000
0A9000
069000
ENDCHAR
STARTCHAR Tcaron
ENCODING 356
SWIDTH 591 0
DWIDTH 9 0
BBX 9 18 0 0
BITMAP
056400
059800
029400
01A000
000000
6AAA80
6AAA80
6AAA80
056800
056800
056800
056800
056800
056800
056800
056800
056800
056800
ENDCHAR
STARTCHAR tcaron
ENCODING 357
SWIDTH 842 0
DWIDTH 13 0
BBX 13 12 0 0
BITMAP
15554540
55554A80
55554680
6AAA8580
05680640
05680400
05680000
05680000
05680000
05680000
05680000
05680000
ENDCHAR
STARTCHAR Tbar
ENCODING 358
SWIDTH 591 0
DWIDTH 9 0
BBX 9 13 0 0
BITMAP
6AAA80
6AAA80
6AAA80
056800
056800
616A40
616A40
656A40
056800
056800
056800
056800
056800
ENDCHAR
STARTCHAR tbar
ENCODING 359
SWIDTH 588 0
DWIDTH 9 0
BBX 9 12 0 0
BITMAP
155540
555540
555540
6AAA80
056800
056800
616A40
616A40
696A40
056800
056800
056800
ENDCHAR
STARTCHAR Utilde
ENCODING 360
SWIDTH 905 0
DWIDTH 14 0
BBX 14 18 0 -1
BITMAP
01AA8500
05AAA600
095AA900
00000000
558005A0
558006A0
558006A0
558006A0
558006A0
558006A0
558006A0
568016A0
5A802560
29659A50
16656580
09956600
01955800
00164000
ENDCHAR
STARTCHAR utilde
ENCODING 361
SWIDTH 795 0
DWIDTH 13 0
BBX 12 17 0 -1
BITMAP
06AA54
05AA98
156AA4
000000
000000
5580AA
5580AA
5580AA
5580AA
5580AA
5580AA
5680AA
1A665A
259665
099598
025560
005900
ENDCHAR
STARTCHAR Umacron
ENCODING 362
SWIDTH 905 0
DWIDTH 14 0
BBX 14 14 0 -1
BITMAP
558005A0
558006A0
558006A0
558006A0
558006A0
558006A0
558006A0
568016A0
5A802560
29659A50
16656580
09956600
01955800
00164000
ENDCHAR
STARTCHAR umacron
ENCODING 363
SWIDTH 795 0
DWIDTH 13 0
BBX 12 12 0 -1
BITMAP
5580AA
5580AA
5580AA
5580AA
5580AA
5580AA
5680AA
1A665A
259665
099598
025560
005900
ENDCHAR
STARTCHAR Ubreve
ENCODING 364
SWIDTH 905 0
DWIDTH 14 0
BBX 14 18 0 -1
BITMAP
00105000
00299000
00050000
00000000
558005A0
558006A0
558006A0
558006A0
558006A0
558006A0
558006A0
568016A0
5A802560
29659A50
16656580
09956600
01955800
00164000
ENDCHAR
STARTCHAR ubreve
ENCODING 365
SWIDTH 795 0
DWIDTH 13 0
BBX 12 16 0 -1
BITMAP
005140
006640
001500
000000
5580AA
5580AA
5580AA
5580AA
5580AA
5580AA
5680AA
1A665A
259665
099598
025560
005900
ENDCHAR
STARTCHAR Uring
ENCODING 366
SWIDTH 905 0
DWIDTH 14 0
BBX 14 20 0 -1
BITMAP
00050000
00158000
00149000
00168000
00054000
00000000
558005A0
558006A0
558006A0
558006A0
558006A0
558006A0
558006A0
568016A0
5A802560
29659A50
16656580
09956600
01955800
00164000
ENDCHAR
STARTCHAR uring
ENCODING 367
SWIDTH 795 0
DWIDTH 13 0
BBX 12 18 0 -1
BITMAP
001500
005640
006240
005640
001500
000000
5580AA
5580AA
5580AA
5580AA
5580AA
5580AA
5680AA
1A665A
259665
099598
025560
005900
ENDCHAR
STARTCHAR Uhungarumlaut
ENCODING 368
SWIDTH 905 0
DWIDTH 14 0
BBX 15 19 0 -1
BITMAP
00064064
00668664
01682640
00400400
00000000
558005A0
558006A0
558006A0
558006A0
558006A0
558006A0
558006A0
568016A0
5A802560
29659A50
16656580
09956600
01955800
00164000
ENDCHAR
STARTCHAR uhungarumlaut
ENCODING 369
SWIDTH 795 0
DWIDTH 13 0
BBX 14 17 0 -1
BITMAP
00190190
019A19A0
05A09A00
01001000
00000000
5580AA00
5580AA00
5580AA00
5580AA00
5580AA00
5580AA00
5680AA00
1A665A00
25966500
09959800
02556000
00590000
ENDCHAR
STARTCHAR Uogonek
ENCODING 370
SWIDTH 905 0
DWIDTH 14 0
BBX 14 19 0 -6
BITMAP
558005A0
558006A0
558006A0
558006A0
558006A0
558006A0
558006A0
568016A0
5A802560
29659A50
16656580
09956600
01955800
001F4000
00250000
00180000
00190000
001A0000
00150000
ENDCHAR
STARTCHAR uogonek
ENCODING 371
SWIDTH 794 0
DWIDTH 13 0
BBX 12 17 0 -6
BITMAP
5580AA
5580AA
5580AA
5580AA
5580AA
5580AA
5680AA
1A665A
259665
099598
0255A0
007D00
009400
006000
006400
006800
005400
ENDCHAR
STARTCHAR Ycircumflex
ENCODING 374
SWIDTH 789 0
DWIDTH 13 0
BBX 12 18 0 0
BITMAP
002500
002A00
009900
00A540
000000
5540A5
2A815A
255295
06A568
095A54
0196A0
026950
019A80
009540
00A540
00A540
00A540
00A540
ENDCHAR
STARTCHAR ycircumflex
ENCODING 375
SWIDTH 733 0
DWIDTH 12 0
BBX 11 17 0 0
BITMAP
006800
00A500
009A00
015900
000000
000000
5582A4
2A5568
15AA54
0A55A0
056950
025A80
01A540
00AA00
00AA00
00AA00
00AA00
ENDCHAR
STARTCHAR Ydieresis
ENCODING 376
SWIDTH 789 0
DWIDTH 13 0
BBX 12 16 0 0
BITMAP
055150
055290
000000
5540A5
2A815A
255295
06A568
095A54
0196A0
026950
019A80
009540
00A540
00A540
00A540
00A540
ENDCHAR
STARTCHAR Zacute
ENCODING 377
SWIDTH 854 0
DWIDTH 14 0
BBX 13 18 0 0
BITMAP
00002900
00029900
00199000
00050000
00000000
6AAAAAC0
6AAAA640
6AAA2640
6AA59980
00099980
00666600
02666400
19998000
59990000
2661AA80
265AAA80
59AAAA80
7AAAAA80
ENDCHAR
STARTCHAR zacute
ENCODING 378
SWIDTH 714 0
DWIDTH 11 0
BBX 11 16 0 0
BITMAP
0000A4
000A64
006640
001400
155040
155964
156694
6AA9A0
009A50
016580
025A00
05A500
0A5800
25A6A4
5A6AA4
669AA4
ENDCHAR
STARTCHAR Zdotaccent
ENCODING 379
SWIDTH 854 0
DWIDTH 14 0
BBX 13 17 0 0
BITMAP
001A0000
001A0000
001A0000
00000000
6AAAAAC0
6AAAA640
6AAA2640
6AA59980
00099980
00666600
02666400
19998000
59990000
2661AA80
265AAA80
59AAAA80
7AAAAA80
ENDCHAR
STARTCHAR zdotaccent
ENCODING 380
SWIDTH 714 0
DWIDTH 11 0
BBX 11 15 0 0
BITMAP
006800
006800
006800
155040
155964
156694
6AA9A0
009A50
016580
025A00
05A500
0A5800
25A6A4
5A6AA4
669AA4
ENDCHAR
STARTCHAR Zcaron
ENCODING 381
SWIDTH 854 0
DWIDTH 14 0
BBX 13 18 0 0
BITMAP
00564000
00268000
00294000
001A0000
00000000
6AAAAAC0
6AAAA640
6AAA2640
6AA59980
00099980
00666600
02666400
19998000
59990000
2661AA80
265AAA80
59AAAA80
7AAAAA80
ENDCHAR
STARTCHAR zcaron
ENCODING 382
SWIDTH 714 0
DWIDTH 11 0
BBX 11 17 0 0
BITMAP
015900
009600
00A500
006800
000000
155040
155964
156694
6AA9A0
009A50
016580
025A00
05A500
0A5800
25A6A4
5A6AA4
669AA4
ENDCHAR
STARTCHAR florin
ENCODING 402
SWIDTH 388 0
DWIDTH 6 0
BBX 6 15 0 -1
BITMAP
0150
0550
0A50
1590
1580
6590
6590
6590
1580
1580
1580
1540
6540
6A00
5900
ENDCHAR
STARTCHAR uni01C4
ENCODING 452
SWIDTH 1740 0
DWIDTH 28 0
BBX 28 18 0 0
BITMAP
00000000055500
00000000026800
00000000015800
0000000000D000
00000000000000
6AAAA402AAAAAD
5AAA9502AAAA64
56AA9942AAA598
56AA6682AA4998
56806A50006664
56802560026664
56801560199940
56802560999900
56806952665000
56AA5682665AA8
56AA994199AAA8
5AAA95019AAAA8
6AAAA403AAAAA8
ENDCHAR
STARTCHAR uni01C5
ENCODING 453
SWIDTH 1601 0
DWIDTH 26 0
BBX 25 17 0 0
BITMAP
00000000155400
0000000009A000
00000000055000
00000000034000
6AAAA400000000
5AAA9501550400
56AA9941559A40
56AA668155A580
56806A52AA5A00
5680256005A500
568015600A5800
56802560259400
56806950596000
56AA5680968000
56AA9941696A80
5AAA9502966A80
6AAAA40569AA80
ENDCHAR
STARTCHAR Scommaaccent
ENCODING 536
SWIDTH 682 0
DWIDTH 11 0
BBX 11 20 0 -6
BITMAP
005500
095590
265594
5A5640
559500
559500
5A5580
265660
095990
016A54
015A54
065590
595660
295580
01A500
005400
00A800
006800
009800
006400
ENDCHAR
STARTCHAR scommaaccent
ENCODING 537
SWIDTH 683 0
DWIDTH 11 0
BBX 11 18 0 -6
BITMAP
016500
1955A0
2A5594
565640
560000
596A40
25AA60
06A994
000154
16A994
5A5A60
1A5680
005400
005400
00A800
006800
009800
006400
ENDCHAR
STARTCHAR uni021A
ENCODING 538
SWIDTH 591 0
DWIDTH 9 0
BBX 9 19 0 -6
BITMAP
6AAA80
6AAA80
6AAA80
056800
056800
056800
056800
056800
056800
056800
056800
056800
056800
000000
015000
029000
019000
01A000
019000
ENDCHAR
STARTCHAR uni021B
ENCODING 539
SWIDTH 588 0
DWIDTH 9 0
BBX 9 18 0 -6
BITMAP
155540
555540
555540
6AAA80
056800
056800
056800
056800
056800
056800
056800
056800
000000
015000
029000
019000
01A000
019000
ENDCHAR
STARTCHAR uni0237
ENCODING 567
SWIDTH 393 0
DWIDTH 6 0
BBX 6 13 0 -2
BITMAP
1560
1560
1560
1560
1560
1560
1560
1560
6950
5650
5980
5600
6400
ENDCHAR
STARTCHAR circumflex
ENCODING 710
SWIDTH 376 0
DWIDTH 6 0
BBX 6 4 0 12
BITMAP
0900
1940
2680
5A50
ENDCHAR
STARTCHAR caron
ENCODING 711
SWIDTH 362 0
DWIDTH 6 0
BBX 5 4 0 12
BITMAP
5540
2680
2540
1A00
ENDCHAR
STARTCHAR breve
ENCODING 728
SWIDTH 360 0
DWIDTH 6 0
BBX 5 3 0 12
BITMAP
5040
2A80
0500
ENDCHAR
STARTCHAR dotaccent
ENCODING 729
SWIDTH 255 0
DWIDTH 4 0
BBX 4 3 0 10
BITMAP
69
69
69
ENDCHAR
STARTCHAR ring
ENCODING 730
SWIDTH 330 0
DWIDTH 5 0
BBX 5 5 0 12
BITMAP
1500
6540
6240
6540
1500
ENDCHAR
STARTCHAR ogonek
ENCODING 731
SWIDTH 250 0
DWIDTH 4 0
BBX 4 6 0 -5
BITMAP
05
24
58
55
55
55
ENDCHAR
STARTCHAR tilde
ENCODING 732
SWIDTH 665 0
DWIDTH 11 0
BBX 10 3 0 9
BITMAP
1AA950
16AA60
55AA90
ENDCHAR
STARTCHAR hungarumlaut
ENCODING 733
SWIDTH 837 0
DWIDTH 13 0
BBX 12 4 1 11
BITMAP
029025
299299
991590
500500
ENDCHAR
STARTCHAR uni0307
ENCODING 775
SWIDTH 260 0
DWIDTH 4 0
BBX 4 3 0 6
BITMAP
69
69
69
ENDCHAR
STARTCHAR uni030F
ENCODING 783
SWIDTH 554 0
DWIDTH 9 0
BBX 8 5 0 12
BITMAP
5854
2828
1525
0A16
090A
ENDCHAR
STARTCHAR uni0311
ENCODING 785
SWIDTH 375 0
DWIDTH 6 0
BBX 4 3 1 12
BITMAP
14
96
41
ENDCHAR
STARTCHAR uni0326
ENCODING 806
SWIDTH 274 0
DWIDTH 4 0
BBX 4 5 0 -6
BITMAP
55
56
16
25
18
ENDCHAR
STARTCHAR Omega
ENCODING 937
SWIDTH 92 0
DWIDTH 1 0
BBX 1 1 0 0
BITMAP
00
ENDCHAR
STARTCHAR uni00B5.dup2
ENCODING 956
SWIDTH 802 0
DWIDTH 13 0
BBX 13 13 0 -2
BITMAP
5680A940
5680A940
5680A940
5680A940
5680A940
5680A940
5680A900
56966A00
5695A600
56959800
56956000
56A94000
55400000
ENDCHAR
STARTCHAR pi
ENCODING 960
SWIDTH 92 0
DWIDTH 1 0
BBX 1 1 0 0
BITMAP
00
ENDCHAR
STARTCHAR endash
ENCODING 8211
SWIDTH 473 0
DWIDTH 8 0
BBX 6 3 1 5
BITMAP
AAA0
AAA0
AAA0
ENDCHAR
STARTCHAR emdash
ENCODING 8212
SWIDTH 615 0
DWIDTH 10 0
BBX 8 3 1 5
BITMAP
AAAA
AAAA
AAAA
ENDCHAR
STARTCHAR quoteleft
ENCODING 8216
SWIDTH 254 0
DWIDTH 4 0
BBX 4 5 0 8
BITMAP
19
59
54
55
55
ENDCHAR
STARTCHAR quoteright
ENCODING 8217
SWIDTH 251 0
DWIDTH 4 0
BBX 4 5 0 8
BITMAP
55
55
15
65
28
ENDCHAR
STARTCHAR quotesinglbase
ENCODING 8218
SWIDTH 252 0
DWIDTH 4 0
BBX 4 5 0 -2
BITMAP
55
55
15
65
18
ENDCHAR
STARTCHAR quotedblleft
ENCODING 8220
SWIDTH 535 0
DWIDTH 9 0
BBX 8 5 0 8
BITMAP
190A
5926
5428
552A
552A
ENDCHAR
STARTCHAR quotedblright
ENCODING 8221
SWIDTH 532 0
DWIDTH 9 0
BBX 8 5 0 8
BITMAP
552A
552A
151A
6516
2819
ENDCHAR
STARTCHAR quotedblbase
ENCODING 8222
SWIDTH 533 0
DWIDTH 9 0
BBX 8 6 0 -3
BITMAP
5515
552A
151A
6516
1819
0010
ENDCHAR
STARTCHAR dagger
ENCODING 8224
SWIDTH 636 0
DWIDTH 10 0
BBX 10 13 0 0
BITMAP
02A400
02A400
16A550
56A650
56A650
6AA690
02A400
02A400
02A400
02A400
02A400
02A400
02A400
ENDCHAR
STARTCHAR daggerdbl
ENCODING 8225
SWIDTH 648 0
DWIDTH 10 0
BBX 10 13 0 0
BITMAP
029500
029500
569650
569650
569650
169650
029500
169550
569650
569650
6A9690
029500
029500
ENDCHAR
STARTCHAR bullet
ENCODING 8226
SWIDTH 501 0
DWIDTH 8 0
BBX 8 7 0 2
BITMAP
0AA0
2698
5415
5415
5825
2698
0690
ENDCHAR
STARTCHAR ellipsis
ENCODING 8230
SWIDTH 676 0
DWIDTH 11 0
BBX 10 3 0 0
BITMAP
69A5A0
69A5A0
69A5A0
ENDCHAR
STARTCHAR perthousand
ENCODING 8240
SWIDTH 447 0
DWIDTH 7 0
BBX 7 15 0 -2
BITMAP
0168
0154
0294
02A0
05A0
0550
0A50
0A80
1680
1540
2940
2A00
5A00
5500
5400
ENDCHAR
STARTCHAR guilsinglleft
ENCODING 8249
SWIDTH 465 0
DWIDTH 7 0
BBX 7 8 0 2
BITMAP
0014
0294
65A4
2964
1950
6694
0654
0064
ENDCHAR
STARTCHAR guilsinglright
ENCODING 8250
SWIDTH 465 0
DWIDTH 7 0
BBX 7 8 0 2
BITMAP
5000
5A40
1964
29A4
1594
5668
6690
6400
ENDCHAR
STARTCHAR fraction
ENCODING 8260
SWIDTH 447 0
DWIDTH 7 0
BBX 7 15 0 -2
BITMAP
0168
0154
0294
02A0
05A0
0550
0A50
0A80
1680
1540
2940
2A00
5A00
5500
5400
ENDCHAR
STARTCHAR uni2074
ENCODING 8308
SWIDTH 528 0
DWIDTH 8 0
BBX 8 11 0 2
BITMAP
0290
0560
0A50
1580
2964
5514
6AAA
6AAA
6AAA
0024
0014
ENDCHAR
STARTCHAR Euro
ENCODING 8364
SWIDTH 781 0
DWIDTH 13 0
BBX 12 15 0 -1
BITMAP
000154
006556
019955
069959
096668
069400
65AA90
156000
656A90
069400
096A58
069959
016955
006555
000594
ENDCHAR
STARTCHAR trademark
ENCODING 8482
SWIDTH 1503 0
DWIDTH 24 0
BBX 24 10 0 3
BITMAP
6AAA89500069
6AAA89A00259
6AAA8A5802A5
029009A80965
02900A961695
02900A6A2595
02900A959A95
02900A8A5555
02900A856855
015005415455
ENDCHAR
STARTCHAR partialdiff
ENCODING 8706
SWIDTH 108 0
DWIDTH 2 0
BBX 1 1 0 0
BITMAP
00
ENDCHAR
STARTCHAR uni2206
ENCODING 8710
SWIDTH 108 0
DWIDTH 2 0
BBX 1 1 0 0
BITMAP
00
ENDCHAR
STARTCHAR product
ENCODING 8719
SWIDTH 521 0
DWIDTH 8 0
BBX 8 11 0 0
BITMAP
0AA0
0A54
1568
29A5
5A56
565A
1A55
2968
1598
0A94
0970
ENDCHAR
STARTCHAR summation
ENCODING 8721
SWIDTH 108 0
DWIDTH 2 0
BBX 1 1 0 0
BITMAP
00
ENDCHAR
STARTCHAR minus
ENCODING 8722
SWIDTH 555 0
DWIDTH 9 0
BBX 7 4 1 5
BITMAP
5554
5554
5554
5554
ENDCHAR
STARTCHAR radical
ENCODING 8730
SWIDTH 108 0
DWIDTH 2 0
BBX 1 1 0 0
BITMAP
00
ENDCHAR
STARTCHAR infinity
ENCODING 8734
SWIDTH 108 0
DWIDTH 2 0
BBX 1 1 0 0
BITMAP
00
ENDCHAR
STARTCHAR integral
ENCODING 8747
SWIDTH 362 0
DWIDTH 6 0
BBX 6 15 0 -1
BITMAP
0150
0950
1650
1580
2540
2540
2540
2540
2540
2540
2540
2540
6940
6600
6800
ENDCHAR
STARTCHAR approxequal
ENCODING 8776
SWIDTH 665 0
DWIDTH 11 0
BBX 10 7 0 5
BITMAP
1AA950
16AA60
55AA90
000000
1AA950
16AA60
55AA90
ENDCHAR
STARTCHAR notequal
ENCODING 8800
SWIDTH 473 0
DWIDTH 8 0
BBX 7 15 0 -2
BITMAP
0168
0154
0294
2BF8
1BF4
1FF4
1A94
0A80
2FD4
3FE8
3FA8
2A00
5A00
5500
5400
ENDCHAR
STARTCHAR lessequal
ENCODING 8804
SWIDTH 108 0
DWIDTH 2 0
BBX 1 1 0 0
BITMAP
00
ENDCHAR
STARTCHAR greaterequal
ENCODING 8805
SWIDTH 108 0
DWIDTH 2 0
BBX 1 1 0 0
BITMAP
00
ENDCHAR
STARTCHAR lozenge
ENCODING 9674
SWIDTH 521 0
DWIDTH 8 0
BBX 8 11 0 0
BITMAP
0AA0
0A54
1568
29A5
5A56
565A
1A55
2968
1598
0A94
0970
ENDCHAR
STARTCHAR uniF8FF
ENCODING 63743
SWIDTH 108 0
DWIDTH 2 0
BBX 1 1 0 0
BITMAP
00
ENDCHAR
STARTCHAR uniFB01
ENCODING 64257
SWIDTH 962 0
DWIDTH 15 0
BBX 15 12 0 0
BITMAP
00554000
56955568
56955568
56AA9568
56800568
56AA8568
56AA8568
56954568
56800568
56800568
56800568
56800568
ENDCHAR
STARTCHAR uniFB02
ENCODING 64258
SWIDTH 1208 0
DWIDTH 19 0
BBX 19 12 0 0
BITMAP
0055400000
5695556800
5695556800
56AA956800
5680056800
56AA856800
56AA856800
5695456800
5680056800
5680056AA4
5680056AA4
5680056AA4
ENDCHAR
STARTCHAR .notdef
ENCODING -1
SWIDTH 108 0
DWIDTH 2 0
BBX 1 1 0 0
BITMAP
00
ENDCHAR
ENDFONT
